<svg xmlns="http://www.w3.org/2000/svg" viewBox="0 0 698 179"><style>.word{opacity:1;animation:rise .6s ease .05s both}.xpop{transform-box:fill-box;transform-origin:center;animation:pop .5s cubic-bezier(.2,1.3,.4,1) .55s both}.tag{opacity:1;animation:rise .6s ease .8s both}.rule{transform-box:fill-box;transform-origin:center;animation:sweep .55s ease 1.15s both}@keyframes rise{from{opacity:0;transform:translateY(10px)}to{opacity:1;transform:translateY(0)}}@keyframes pop{0%{transform:scale(.4);opacity:0}60%{opacity:1}100%{transform:scale(1);opacity:1}}@keyframes sweep{from{transform:scaleX(0)}to{transform:scaleX(1)}}@media (prefers-reduced-motion:reduce){.word,.xpop,.tag,.rule{animation:none}}</style><g transform="translate(154.8,83.3)"><g class="word"><path d="M6.047999999999999 12.959999999999999V-39.599999999999994H13.751999999999999V-32.111999999999995Q14.543999999999999 -36.0 17.387999999999998 -38.16Q20.232 -40.32 24.552 -40.32Q30.455999999999996 -40.32 33.983999999999995 -36.251999999999995Q37.512 -32.184 37.512 -25.415999999999997V-14.255999999999998Q37.512 -7.4159999999999995 33.983999999999995 -3.348Q30.455999999999996 0.72 24.552 0.72Q20.232 0.72 17.352 -1.548Q14.472 -3.816 13.68 -7.776H13.607999999999999L13.823999999999998 1.656V12.959999999999999ZM21.816 -6.047999999999999Q25.56 -6.047999999999999 27.647999999999996 -8.027999999999999Q29.735999999999997 -10.008 29.735999999999997 -14.399999999999999V-25.272Q29.735999999999997 -29.592 27.647999999999996 -31.572Q25.56 -33.552 21.816 -33.552Q18.072 -33.552 15.947999999999999 -31.284Q13.823999999999998 -29.016 13.823999999999998 -24.912V-14.759999999999998Q13.823999999999998 -10.584 15.947999999999999 -8.315999999999999Q18.072 -6.047999999999999 21.816 -6.047999999999999Z M54.431999999999995 12.959999999999999V6.263999999999999H65.592Q68.832 6.263999999999999 70.704 4.4639999999999995Q72.576 2.6639999999999997 72.576 -0.43199999999999994V-3.384L72.72 -10.008Q71.78399999999999 -6.4799999999999995 69.012 -4.536Q66.24 -2.5919999999999996 62.135999999999996 -2.5919999999999996Q56.01599999999999 -2.5919999999999996 52.48799999999999 -6.552Q48.959999999999994 -10.511999999999999 48.959999999999994 -17.424V-25.415999999999997Q48.959999999999994 -32.256 52.48799999999999 -36.288Q56.01599999999999 -40.32 62.135999999999996 -40.32Q66.24 -40.32 68.976 -38.376Q71.71199999999999 -36.431999999999995 72.648 -32.903999999999996V-39.599999999999994H80.28V-0.288Q80.28 5.832 76.356 9.395999999999999Q72.43199999999999 12.959999999999999 65.66399999999999 12.959999999999999ZM64.65599999999999 -9.144Q68.32799999999999 -9.144 70.452 -11.411999999999999Q72.576 -13.68 72.576 -17.784V-24.983999999999998Q72.576 -29.016 70.452 -31.284Q68.32799999999999 -33.552 64.65599999999999 -33.552Q60.83999999999999 -33.552 58.788 -31.392Q56.736 -29.232 56.736 -25.488V-17.279999999999998Q56.736 -13.463999999999999 58.788 -11.303999999999998Q60.83999999999999 -9.144 64.65599999999999 -9.144Z" fill="#336791"/><g class="xpop"><path d="M89.496 0.0 103.392 -20.447999999999997 90.35999999999999 -39.599999999999994H99.288L106.27199999999999 -28.656Q106.77599999999998 -27.791999999999998 107.27999999999999 -26.82Q107.78399999999999 -25.848 108.07199999999999 -25.2Q108.28799999999998 -25.848 108.75599999999999 -26.82Q109.22399999999999 -27.791999999999998 109.79999999999998 -28.656L116.71199999999999 -39.599999999999994H125.71199999999999L112.67999999999999 -20.375999999999998L126.50399999999999 0.0H117.576L109.87199999999999 -11.879999999999999Q109.368 -12.744 108.86399999999999 -13.823999999999998Q108.35999999999999 -14.903999999999998 108.07199999999999 -15.552Q107.71199999999999 -14.903999999999998 107.208 -13.823999999999998Q106.704 -12.744 106.12799999999999 -11.879999999999999L98.42399999999999 0.0Z" fill="#249361"/></g><path d="M149.61599999999999 0.6479999999999999Q142.77599999999998 0.6479999999999999 138.88799999999998 -2.448Q135.0 -5.544 135.0 -11.088H142.704Q142.704 -8.568 144.50400000000002 -7.164Q146.304 -5.76 149.61599999999999 -5.76H152.784Q156.168 -5.76 158.04 -7.164Q159.91199999999998 -8.568 159.91199999999998 -11.159999999999998Q159.91199999999998 -15.695999999999998 155.088 -16.343999999999998L144.648 -17.784Q140.256 -18.36 137.844 -21.275999999999996Q135.432 -24.191999999999997 135.432 -28.871999999999996Q135.432 -34.272 139.10399999999998 -37.26Q142.77599999999998 -40.248 149.47199999999998 -40.248H152.712Q158.904 -40.248 162.756 -37.29599999999999Q166.608 -34.343999999999994 166.82399999999998 -29.519999999999996H159.048Q158.904 -31.464 157.212 -32.724Q155.51999999999998 -33.983999999999995 152.712 -33.983999999999995H149.47199999999998Q146.376 -33.983999999999995 144.684 -32.616Q142.992 -31.247999999999998 142.992 -28.944Q142.992 -25.272 147.096 -24.695999999999998L156.88799999999998 -23.4Q167.47199999999998 -21.959999999999997 167.47199999999998 -11.232Q167.47199999999998 -5.544 163.656 -2.448Q159.84 0.6479999999999999 152.784 0.6479999999999999Z M178.63199999999998 0.0V-7.055999999999999H192.384V-32.544H180.07199999999997V-39.599999999999994H200.15999999999997V-7.055999999999999H212.904V0.0ZM195.624 -46.44Q193.10399999999998 -46.44 191.59199999999998 -47.772Q190.07999999999998 -49.104 190.07999999999998 -51.336Q190.07999999999998 -53.63999999999999 191.59199999999998 -54.971999999999994Q193.10399999999998 -56.303999999999995 195.624 -56.303999999999995Q198.144 -56.303999999999995 199.656 -54.971999999999994Q201.168 -53.63999999999999 201.168 -51.336Q201.168 -49.104 199.656 -47.772Q198.144 -46.44 195.624 -46.44Z M222.04799999999997 0.0V-39.599999999999994H229.75199999999998V-32.04Q230.32799999999997 -35.928 233.09999999999997 -38.123999999999995Q235.87199999999996 -40.32 240.33599999999996 -40.32Q246.23999999999998 -40.32 249.76799999999997 -36.54Q253.29599999999996 -32.76 253.29599999999996 -26.351999999999997V0.0H245.51999999999998V-25.2Q245.51999999999998 -29.304 243.43199999999996 -31.5Q241.34399999999997 -33.696 237.74399999999997 -33.696Q234.07199999999997 -33.696 231.94799999999998 -31.391999999999996Q229.82399999999996 -29.087999999999997 229.82399999999996 -24.983999999999998V0.0Z M265.608 0.0V-52.559999999999995H273.384V-23.688H280.368L290.592 -39.599999999999994H299.304L287.13599999999997 -20.592L299.88 0.0H290.952L280.44 -16.991999999999997H273.384V0.0Z M308.23199999999997 0.0V-7.055999999999999H321.984V-32.544H309.67199999999997V-39.599999999999994H329.76V-7.055999999999999H342.50399999999996V0.0ZM325.22399999999993 -46.44Q322.70399999999995 -46.44 321.19199999999995 -47.772Q319.67999999999995 -49.104 319.67999999999995 -51.336Q319.67999999999995 -53.63999999999999 321.19199999999995 -54.971999999999994Q322.70399999999995 -56.303999999999995 325.22399999999993 -56.303999999999995Q327.74399999999997 -56.303999999999995 329.256 -54.971999999999994Q330.768 -53.63999999999999 330.768 -51.336Q330.768 -49.104 329.256 -47.772Q327.74399999999997 -46.44 325.22399999999993 -46.44Z M371.15999999999997 0.0Q365.90399999999994 0.0 362.808 -3.0239999999999996Q359.712 -6.047999999999999 359.712 -11.232V-32.544H348.55199999999996V-39.599999999999994H359.712V-50.76H367.48799999999994V-39.599999999999994H383.472V-32.544H367.48799999999994V-11.303999999999998Q367.48799999999994 -9.431999999999999 368.568 -8.244Q369.64799999999997 -7.055999999999999 371.52 -7.055999999999999H383.11199999999997V0.0Z" fill="#11181C"/></g></g><g transform="translate(30.0,131)"><g class="tag"><path d="M8.4 0.28Q5.5440000000000005 0.28 3.8920000000000003 -1.358Q2.24 -2.996 2.24 -5.964V-14.476Q2.24 -17.444 3.8920000000000003 -19.082Q5.5440000000000005 -20.72 8.4 -20.72Q11.256 -20.72 12.908000000000001 -19.082Q14.56 -17.444 14.56 -14.504V-5.964Q14.56 -2.996 12.908000000000001 -1.358Q11.256 0.28 8.4 0.28ZM8.4 -2.408Q9.912 -2.408 10.724 -3.248Q11.536 -4.088 11.536 -5.684V-14.756Q11.536 -16.352 10.738 -17.192Q9.94 -18.032 8.4 -18.032Q6.86 -18.032 6.062 -17.192Q5.264 -16.352 5.264 -14.756V-5.684Q5.264 -4.088 6.0760000000000005 -3.248Q6.888 -2.408 8.4 -2.408Z M22.624000000000002 0.0V-10.556000000000001H18.256V-13.3H22.624000000000002V-16.268Q22.624000000000002 -18.2 23.856 -19.32Q25.088 -20.44 27.216 -20.44H31.724V-17.752H27.272Q25.648000000000003 -17.752 25.648000000000003 -16.240000000000002V-13.3H31.724V-10.556000000000001H25.648000000000003V0.0Z M39.424 0.0V-10.556000000000001H35.056000000000004V-13.3H39.424V-16.268Q39.424 -18.2 40.656000000000006 -19.32Q41.888000000000005 -20.44 44.016000000000005 -20.44H48.524V-17.752H44.072Q42.448 -17.752 42.448 -16.240000000000002V-13.3H48.524V-10.556000000000001H42.448V0.0Z M61.18000000000001 0.0Q58.99600000000001 0.0 57.694 -1.274Q56.392 -2.548 56.392 -4.676V-17.696H51.212V-20.44H59.416000000000004V-4.732Q59.416000000000004 -3.8080000000000003 59.92 -3.2760000000000002Q60.42400000000001 -2.744 61.292 -2.744H65.94000000000001V0.0Z M69.468 0.0V-2.744H74.816V-12.656H70.028V-15.4H77.84V-2.744H82.796V0.0ZM76.076 -18.06Q75.096 -18.06 74.50800000000001 -18.578Q73.92 -19.096 73.92 -19.964000000000002Q73.92 -20.86 74.50800000000001 -21.378Q75.096 -21.896 76.076 -21.896Q77.056 -21.896 77.644 -21.378Q78.232 -20.86 78.232 -19.964000000000002Q78.232 -19.096 77.644 -18.578Q77.056 -18.06 76.076 -18.06Z M86.352 0.0V-15.4H89.348V-12.46Q89.572 -13.972 90.65 -14.826Q91.728 -15.68 93.464 -15.68Q95.76 -15.68 97.132 -14.21Q98.504 -12.74 98.504 -10.248V0.0H95.48V-9.8Q95.48 -11.396 94.668 -12.25Q93.856 -13.104000000000001 92.456 -13.104000000000001Q91.028 -13.104000000000001 90.202 -12.208Q89.376 -11.312 89.376 -9.716000000000001V0.0Z M109.2 0.28Q106.372 0.28 104.664 -1.3719999999999999Q102.956 -3.024 102.956 -5.88V-9.52Q102.956 -12.376 104.664 -14.027999999999999Q106.372 -15.68 109.2 -15.68Q111.104 -15.68 112.50399999999999 -14.937999999999999Q113.904 -14.196 114.674 -12.852Q115.444 -11.508000000000001 115.444 -9.716000000000001V-6.944H105.868V-5.684Q105.868 -4.0600000000000005 106.764 -3.1640000000000006Q107.66 -2.2680000000000002 109.2 -2.2680000000000002Q110.46 -2.2680000000000002 111.3 -2.7300000000000004Q112.14 -3.192 112.30799999999999 -4.0040000000000004H115.304Q114.996 -2.044 113.33 -0.882Q111.664 0.28 109.2 0.28ZM105.868 -9.716000000000001V-9.072000000000001H112.532V-9.744Q112.532 -11.452 111.66399999999999 -12.376000000000001Q110.79599999999999 -13.3 109.2 -13.3Q107.604 -13.3 106.73599999999999 -12.362Q105.868 -11.424 105.868 -9.716000000000001Z M121.52 -7.868V-10.612H130.48V-7.868Z M140.22400000000002 0.0V-10.556000000000001H135.856V-13.3H140.22400000000002V-16.268Q140.22400000000002 -18.2 141.45600000000002 -19.32Q142.68800000000002 -20.44 144.816 -20.44H149.324V-17.752H144.872Q143.24800000000002 -17.752 143.24800000000002 -16.240000000000002V-13.3H149.324V-10.556000000000001H143.24800000000002V0.0Z M153.46800000000002 0.0V-2.744H158.81600000000003V-12.656H154.02800000000002V-15.4H161.84000000000003V-2.744H166.79600000000002V0.0ZM160.07600000000002 -18.06Q159.09600000000003 -18.06 158.50800000000004 -18.578Q157.92000000000002 -19.096 157.92000000000002 -19.964000000000002Q157.92000000000002 -20.86 158.50800000000004 -21.378Q159.09600000000003 -21.896 160.07600000000002 -21.896Q161.05600000000004 -21.896 161.64400000000003 -21.378Q162.23200000000003 -20.86 162.23200000000003 -19.964000000000002Q162.23200000000003 -19.096 161.64400000000003 -18.578Q161.05600000000004 -18.06 160.07600000000002 -18.06Z M170.91200000000003 0.0V-15.4H173.90800000000002V-12.376Q174.13200000000003 -13.916 175.22400000000005 -14.798Q176.31600000000003 -15.68 178.10800000000003 -15.68Q180.48800000000003 -15.68 181.80400000000003 -14.196Q183.12000000000003 -12.712 183.12000000000003 -10.024000000000001V-8.652000000000001H180.09600000000003V-9.94Q180.09600000000003 -13.048 177.04400000000004 -13.048Q175.53200000000004 -13.048 174.73400000000004 -12.166Q173.93600000000004 -11.284 173.93600000000004 -9.604000000000001V0.0Z M192.58400000000003 0.252Q189.92400000000004 0.252 188.41200000000003 -0.9520000000000001Q186.90000000000003 -2.156 186.90000000000003 -4.312H189.89600000000004Q189.89600000000004 -3.332 190.59600000000006 -2.786Q191.29600000000005 -2.24 192.58400000000003 -2.24H193.81600000000003Q195.13200000000003 -2.24 195.86000000000004 -2.786Q196.58800000000005 -3.332 196.58800000000005 -4.34Q196.58800000000005 -6.104 194.71200000000005 -6.356L190.65200000000004 -6.916Q188.94400000000005 -7.140000000000001 188.00600000000003 -8.274000000000001Q187.06800000000004 -9.408 187.06800000000004 -11.228Q187.06800000000004 -13.328 188.49600000000004 -14.49Q189.92400000000004 -15.652000000000001 192.52800000000005 -15.652000000000001H193.78800000000004Q196.19600000000003 -15.652000000000001 197.69400000000002 -14.504000000000001Q199.19200000000004 -13.356 199.27600000000004 -11.48H196.25200000000004Q196.19600000000003 -12.236 195.53800000000004 -12.726Q194.88000000000005 -13.216000000000001 193.78800000000004 -13.216000000000001H192.52800000000005Q191.32400000000004 -13.216000000000001 190.66600000000005 -12.684000000000001Q190.00800000000004 -12.152000000000001 190.00800000000004 -11.256Q190.00800000000004 -9.828 191.60400000000004 -9.604000000000001L195.41200000000003 -9.1Q199.52800000000005 -8.540000000000001 199.52800000000005 -4.368Q199.52800000000005 -2.156 198.04400000000004 -0.9520000000000001Q196.56000000000003 0.252 193.81600000000003 0.252Z M211.54000000000005 0.0Q209.49600000000004 0.0 208.29200000000003 -1.176Q207.08800000000005 -2.352 207.08800000000005 -4.368V-12.656H202.74800000000005V-15.4H207.08800000000005V-19.740000000000002H210.11200000000005V-15.4H216.32800000000006V-12.656H210.11200000000005V-4.396Q210.11200000000005 -3.668 210.53200000000004 -3.2060000000000004Q210.95200000000006 -2.744 211.68000000000006 -2.744H216.18800000000005V0.0Z M224.00000000000006 4.48 225.51200000000006 -4.088H229.04000000000008L226.99600000000007 4.48Z M254.38000000000008 0.0V-20.44H260.76400000000007Q262.66800000000006 -20.44 264.11000000000007 -19.698Q265.5520000000001 -18.956 266.3500000000001 -17.612000000000002Q267.1480000000001 -16.268 267.1480000000001 -14.448Q267.1480000000001 -12.404 266.1120000000001 -10.892Q265.0760000000001 -9.38 263.3400000000001 -8.764L267.4280000000001 0.0H264.1240000000001L260.3160000000001 -8.4H257.3760000000001V0.0ZM257.3760000000001 -11.088000000000001H260.76400000000007Q262.27600000000007 -11.088000000000001 263.1720000000001 -11.984000000000002Q264.0680000000001 -12.88 264.0680000000001 -14.392Q264.0680000000001 -15.932 263.15800000000013 -16.842Q262.2480000000001 -17.752 260.76400000000007 -17.752H257.3760000000001Z M272.3280000000001 0.0V-20.44H275.3520000000001V-2.744H284.28400000000005V0.0Z M294.08400000000006 0.28Q291.06000000000006 0.28 289.24000000000007 -1.3159999999999998Q287.4200000000001 -2.912 287.4200000000001 -5.684H290.3880000000001Q290.3880000000001 -4.144 291.3960000000001 -3.262Q292.40400000000005 -2.38 294.08400000000006 -2.38Q295.7360000000001 -2.38 296.6880000000001 -3.276Q297.6400000000001 -4.172 297.6400000000001 -5.656Q297.6400000000001 -6.776 297.0240000000001 -7.616Q296.4080000000001 -8.456 295.2600000000001 -8.764L292.3200000000001 -9.548Q290.2480000000001 -10.108 289.0580000000001 -11.592Q287.86800000000005 -13.076 287.86800000000005 -15.148Q287.86800000000005 -16.828 288.61000000000007 -18.073999999999998Q289.3520000000001 -19.32 290.72400000000005 -20.02Q292.09600000000006 -20.72 293.91600000000005 -20.72Q295.7360000000001 -20.72 297.12200000000007 -20.02Q298.5080000000001 -19.32 299.2780000000001 -18.073999999999998Q300.04800000000006 -16.828 300.04800000000006 -15.176H297.0800000000001Q297.0800000000001 -16.492 296.1980000000001 -17.29Q295.3160000000001 -18.088 293.91600000000005 -18.088Q292.5160000000001 -18.088 291.6620000000001 -17.29Q290.8080000000001 -16.492 290.8080000000001 -15.204Q290.8080000000001 -14.168000000000001 291.38200000000006 -13.468Q291.9560000000001 -12.768 292.9920000000001 -12.488L296.0160000000001 -11.676Q298.14400000000006 -11.116 299.3760000000001 -9.492Q300.60800000000006 -7.868 300.60800000000006 -5.656Q300.60800000000006 -3.8360000000000003 299.79600000000005 -2.5060000000000002Q298.9840000000001 -1.176 297.5280000000001 -0.44799999999999995Q296.07200000000006 0.28 294.08400000000006 0.28Z M306.3200000000001 -7.868V-10.612H315.2800000000001V-7.868Z M326.0600000000001 0.28Q323.7080000000001 0.28 322.3220000000001 -1.0499999999999998Q320.9360000000001 -2.38 320.9360000000001 -4.5360000000000005Q320.9360000000001 -6.72 322.4200000000001 -8.05Q323.9040000000001 -9.38 326.3680000000001 -9.38H330.6240000000001V-10.5Q330.6240000000001 -13.16 327.6280000000001 -13.16Q326.2840000000001 -13.16 325.4720000000001 -12.656Q324.6600000000001 -12.152000000000001 324.6040000000001 -11.256H321.6360000000001Q321.7760000000001 -13.188 323.37200000000007 -14.434000000000001Q324.9680000000001 -15.68 327.6560000000001 -15.68Q330.5120000000001 -15.68 332.0800000000001 -14.322Q333.6480000000001 -12.964 333.6480000000001 -10.528V0.0H330.6800000000001V-2.884H330.6520000000001Q330.45600000000013 -1.4000000000000001 329.2520000000001 -0.56Q328.0480000000001 0.28 326.0600000000001 0.28ZM326.9280000000001 -2.212Q328.6360000000001 -2.212 329.6300000000001 -3.0380000000000003Q330.6240000000001 -3.864 330.6240000000001 -5.264V-7.252H326.5920000000001Q325.3880000000001 -7.252 324.6740000000001 -6.552Q323.9600000000001 -5.852 323.9600000000001 -4.76Q323.9600000000001 -3.584 324.7440000000001 -2.898Q325.5280000000001 -2.212 326.9280000000001 -2.212Z M339.1080000000001 0.0 336.6440000000001 -15.4H339.13600000000014L340.5920000000001 -5.264Q340.7040000000001 -4.508 340.7880000000001 -3.6260000000000003Q340.8720000000001 -2.744 340.9000000000001 -2.184Q340.95600000000013 -2.744 341.04000000000013 -3.6260000000000003Q341.12400000000014 -4.508 341.2640000000001 -5.264L343.0560000000001 -15.4H345.7720000000001L347.5360000000001 -5.264Q347.6760000000001 -4.508 347.7740000000001 -3.6260000000000003Q347.8720000000001 -2.744 347.9280000000001 -2.184Q347.9840000000001 -2.744 348.0540000000001 -3.6260000000000003Q348.12400000000014 -4.508 348.2360000000001 -5.264L349.7480000000001 -15.4H352.1560000000001L349.6080000000001 0.0H346.4160000000001L344.7920000000001 -10.052Q344.6520000000001 -10.836 344.5540000000001 -11.788Q344.45600000000013 -12.74 344.4000000000001 -13.3Q344.3720000000001 -12.74 344.2460000000001 -11.788Q344.1200000000001 -10.836 344.0080000000001 -10.052L342.3280000000001 0.0Z M359.66000000000014 0.28Q357.3080000000001 0.28 355.92200000000014 -1.0499999999999998Q354.5360000000001 -2.38 354.5360000000001 -4.5360000000000005Q354.5360000000001 -6.72 356.0200000000001 -8.05Q357.50400000000013 -9.38 359.96800000000013 -9.38H364.2240000000001V-10.5Q364.2240000000001 -13.16 361.2280000000001 -13.16Q359.8840000000001 -13.16 359.0720000000001 -12.656Q358.2600000000001 -12.152000000000001 358.2040000000001 -11.256H355.2360000000001Q355.37600000000015 -13.188 356.9720000000001 -14.434000000000001Q358.5680000000001 -15.68 361.25600000000014 -15.68Q364.11200000000014 -15.68 365.6800000000001 -14.322Q367.2480000000001 -12.964 367.2480000000001 -10.528V0.0H364.28000000000014V-2.884H364.2520000000001Q364.05600000000015 -1.4000000000000001 362.85200000000015 -0.56Q361.64800000000014 0.28 359.66000000000014 0.28ZM360.52800000000013 -2.212Q362.2360000000001 -2.212 363.23000000000013 -3.0380000000000003Q364.2240000000001 -3.864 364.2240000000001 -5.264V-7.252H360.1920000000001Q358.9880000000001 -7.252 358.2740000000001 -6.552Q357.5600000000001 -5.852 357.5600000000001 -4.76Q357.5600000000001 -3.584 358.3440000000001 -2.898Q359.1280000000001 -2.212 360.52800000000013 -2.212Z M372.5120000000001 0.0V-15.4H375.50800000000015V-12.376Q375.73200000000014 -13.916 376.8240000000001 -14.798Q377.9160000000001 -15.68 379.70800000000014 -15.68Q382.08800000000014 -15.68 383.4040000000001 -14.196Q384.72000000000014 -12.712 384.72000000000014 -10.024000000000001V-8.652000000000001H381.69600000000014V-9.94Q381.69600000000014 -13.048 378.6440000000001 -13.048Q377.1320000000001 -13.048 376.3340000000001 -12.166Q375.5360000000001 -11.284 375.5360000000001 -9.604000000000001V0.0Z M394.8000000000001 0.28Q391.97200000000015 0.28 390.2640000000001 -1.3719999999999999Q388.55600000000015 -3.024 388.55600000000015 -5.88V-9.52Q388.55600000000015 -12.376 390.2640000000001 -14.027999999999999Q391.97200000000015 -15.68 394.8000000000001 -15.68Q396.7040000000001 -15.68 398.10400000000016 -14.937999999999999Q399.50400000000013 -14.196 400.2740000000001 -12.852Q401.04400000000015 -11.508000000000001 401.04400000000015 -9.716000000000001V-6.944H391.46800000000013V-5.684Q391.46800000000013 -4.0600000000000005 392.36400000000015 -3.1640000000000006Q393.26000000000016 -2.2680000000000002 394.8000000000001 -2.2680000000000002Q396.0600000000002 -2.2680000000000002 396.90000000000015 -2.7300000000000004Q397.7400000000001 -3.192 397.90800000000013 -4.0040000000000004H400.90400000000017Q400.5960000000002 -2.044 398.9300000000002 -0.882Q397.2640000000001 0.28 394.8000000000001 0.28ZM391.46800000000013 -9.716000000000001V-9.072000000000001H398.1320000000002V-9.744Q398.1320000000002 -11.452 397.2640000000001 -12.376000000000001Q396.39600000000013 -13.3 394.8000000000001 -13.3Q393.2040000000001 -13.3 392.3360000000001 -12.362Q391.46800000000013 -11.424 391.46800000000013 -9.716000000000001Z M422.35200000000015 0.0V-20.44H429.04400000000015Q431.03200000000015 -20.44 432.5020000000002 -19.684Q433.97200000000015 -18.928 434.77000000000015 -17.542Q435.56800000000015 -16.156 435.56800000000015 -14.280000000000001Q435.56800000000015 -12.404 434.7560000000002 -11.018Q433.9440000000002 -9.632 432.48800000000017 -8.876000000000001Q431.03200000000015 -8.120000000000001 429.04400000000015 -8.120000000000001H425.37600000000015V0.0ZM425.37600000000015 -10.808H429.04400000000015Q430.6120000000002 -10.808 431.5500000000002 -11.76Q432.48800000000017 -12.712 432.48800000000017 -14.280000000000001Q432.48800000000017 -15.848 431.5500000000002 -16.8Q430.6120000000002 -17.752 429.04400000000015 -17.752H425.37600000000015Z M445.20000000000016 0.252Q442.34400000000016 0.252 440.6500000000002 -1.4Q438.9560000000002 -3.052 438.9560000000002 -5.908V-9.492Q438.9560000000002 -12.376 440.6360000000002 -14.014Q442.3160000000002 -15.652000000000001 445.20000000000016 -15.652000000000001Q448.0840000000002 -15.652000000000001 449.7640000000002 -14.014Q451.4440000000002 -12.376 451.4440000000002 -9.492V-5.908Q451.4440000000002 -3.052 449.75000000000017 -1.4Q448.05600000000015 0.252 445.20000000000016 0.252ZM445.20000000000016 -2.408Q446.71200000000016 -2.408 447.56600000000014 -3.2619999999999996Q448.4200000000002 -4.116 448.4200000000002 -5.712V-9.688Q448.4200000000002 -11.284 447.56600000000014 -12.138000000000002Q446.71200000000016 -12.992 445.20000000000016 -12.992Q443.68800000000016 -12.992 442.8340000000002 -12.138000000000002Q441.9800000000002 -11.284 441.9800000000002 -9.688V-5.712Q441.9800000000002 -4.116 442.8340000000002 -3.2619999999999996Q443.68800000000016 -2.408 445.20000000000016 -2.408Z M461.3840000000002 0.252Q458.7240000000002 0.252 457.2120000000002 -0.9520000000000001Q455.7000000000002 -2.156 455.7000000000002 -4.312H458.6960000000002Q458.6960000000002 -3.332 459.3960000000002 -2.786Q460.0960000000002 -2.24 461.3840000000002 -2.24H462.6160000000002Q463.9320000000002 -2.24 464.6600000000002 -2.786Q465.3880000000002 -3.332 465.3880000000002 -4.34Q465.3880000000002 -6.104 463.51200000000017 -6.356L459.45200000000017 -6.916Q457.7440000000002 -7.140000000000001 456.80600000000015 -8.274000000000001Q455.86800000000017 -9.408 455.86800000000017 -11.228Q455.86800000000017 -13.328 457.29600000000016 -14.49Q458.7240000000002 -15.652000000000001 461.3280000000002 -15.652000000000001H462.5880000000002Q464.9960000000002 -15.652000000000001 466.4940000000002 -14.504000000000001Q467.9920000000002 -13.356 468.0760000000002 -11.48H465.0520000000002Q464.9960000000002 -12.236 464.3380000000002 -12.726Q463.6800000000002 -13.216000000000001 462.5880000000002 -13.216000000000001H461.3280000000002Q460.1240000000002 -13.216000000000001 459.46600000000024 -12.684000000000001Q458.8080000000002 -12.152000000000001 458.8080000000002 -11.256Q458.8080000000002 -9.828 460.40400000000017 -9.604000000000001L464.2120000000002 -9.1Q468.3280000000002 -8.540000000000001 468.3280000000002 -4.368Q468.3280000000002 -2.156 466.84400000000016 -0.9520000000000001Q465.3600000000002 0.252 462.6160000000002 0.252Z M480.3400000000002 0.0Q478.2960000000002 0.0 477.0920000000002 -1.176Q475.8880000000002 -2.352 475.8880000000002 -4.368V-12.656H471.54800000000023V-15.4H475.8880000000002V-19.740000000000002H478.9120000000002V-15.4H485.1280000000002V-12.656H478.9120000000002V-4.396Q478.9120000000002 -3.668 479.3320000000002 -3.2060000000000004Q479.7520000000002 -2.744 480.4800000000002 -2.744H484.9880000000002V0.0Z M491.5680000000002 5.04V2.436H495.90800000000024Q497.16800000000023 2.436 497.8960000000002 1.736Q498.6240000000002 1.036 498.6240000000002 -0.168V-1.316L498.68000000000023 -3.892Q498.3160000000002 -2.52 497.23800000000017 -1.764Q496.1600000000002 -1.008 494.5640000000002 -1.008Q492.1840000000002 -1.008 490.81200000000024 -2.548Q489.4400000000002 -4.088 489.4400000000002 -6.776V-9.884Q489.4400000000002 -12.544 490.81200000000024 -14.112Q492.1840000000002 -15.68 494.5640000000002 -15.68Q496.1600000000002 -15.68 497.2240000000002 -14.924Q498.28800000000024 -14.168000000000001 498.6520000000002 -12.796000000000001V-15.4H501.62000000000023V-0.112Q501.62000000000023 2.2680000000000002 500.0940000000002 3.654Q498.5680000000002 5.04 495.9360000000002 5.04ZM495.5440000000002 -3.556Q496.9720000000002 -3.556 497.79800000000023 -4.438000000000001Q498.6240000000002 -5.32 498.6240000000002 -6.916V-9.716000000000001Q498.6240000000002 -11.284 497.79800000000023 -12.166Q496.9720000000002 -13.048 495.5440000000002 -13.048Q494.06000000000023 -13.048 493.2620000000002 -12.208Q492.4640000000002 -11.368 492.4640000000002 -9.912V-6.72Q492.4640000000002 -5.236 493.2620000000002 -4.396Q494.06000000000023 -3.556 495.5440000000002 -3.556Z M506.9120000000002 0.0V-15.4H509.90800000000024V-12.376Q510.13200000000023 -13.916 511.2240000000003 -14.798Q512.3160000000003 -15.68 514.1080000000002 -15.68Q516.4880000000003 -15.68 517.8040000000003 -14.196Q519.1200000000002 -12.712 519.1200000000002 -10.024000000000001V-8.652000000000001H516.0960000000002V-9.94Q516.0960000000002 -13.048 513.0440000000002 -13.048Q511.5320000000002 -13.048 510.7340000000002 -12.166Q509.9360000000002 -11.284 509.9360000000002 -9.604000000000001V0.0Z M529.2000000000002 0.28Q526.3720000000002 0.28 524.6640000000002 -1.3719999999999999Q522.9560000000001 -3.024 522.9560000000001 -5.88V-9.52Q522.9560000000001 -12.376 524.6640000000002 -14.027999999999999Q526.3720000000002 -15.68 529.2000000000002 -15.68Q531.1040000000002 -15.68 532.5040000000001 -14.937999999999999Q533.9040000000002 -14.196 534.6740000000002 -12.852Q535.4440000000002 -11.508000000000001 535.4440000000002 -9.716000000000001V-6.944H525.8680000000002V-5.684Q525.8680000000002 -4.0600000000000005 526.7640000000001 -3.1640000000000006Q527.6600000000002 -2.2680000000000002 529.2000000000002 -2.2680000000000002Q530.4600000000002 -2.2680000000000002 531.3000000000002 -2.7300000000000004Q532.1400000000002 -3.192 532.3080000000002 -4.0040000000000004H535.3040000000002Q534.9960000000002 -2.044 533.3300000000002 -0.882Q531.6640000000002 0.28 529.2000000000002 0.28ZM525.8680000000002 -9.716000000000001V-9.072000000000001H532.5320000000002V-9.744Q532.5320000000002 -11.452 531.6640000000002 -12.376000000000001Q530.7960000000002 -13.3 529.2000000000002 -13.3Q527.6040000000002 -13.3 526.7360000000001 -12.362Q525.8680000000002 -11.424 525.8680000000002 -9.716000000000001Z M545.3840000000001 0.252Q542.7240000000002 0.252 541.2120000000002 -0.9520000000000001Q539.7000000000002 -2.156 539.7000000000002 -4.312H542.6960000000001Q542.6960000000001 -3.332 543.3960000000002 -2.786Q544.0960000000001 -2.24 545.3840000000001 -2.24H546.6160000000001Q547.9320000000001 -2.24 548.6600000000001 -2.786Q549.3880000000001 -3.332 549.3880000000001 -4.34Q549.3880000000001 -6.104 547.5120000000002 -6.356L543.4520000000001 -6.916Q541.7440000000001 -7.140000000000001 540.8060000000002 -8.274000000000001Q539.8680000000002 -9.408 539.8680000000002 -11.228Q539.8680000000002 -13.328 541.2960000000002 -14.49Q542.7240000000002 -15.652000000000001 545.3280000000001 -15.652000000000001H546.5880000000002Q548.9960000000001 -15.652000000000001 550.4940000000001 -14.504000000000001Q551.9920000000002 -13.356 552.0760000000001 -11.48H549.0520000000001Q548.9960000000001 -12.236 548.3380000000002 -12.726Q547.6800000000002 -13.216000000000001 546.5880000000002 -13.216000000000001H545.3280000000001Q544.1240000000001 -13.216000000000001 543.4660000000001 -12.684000000000001Q542.8080000000001 -12.152000000000001 542.8080000000001 -11.256Q542.8080000000001 -9.828 544.4040000000001 -9.604000000000001L548.2120000000001 -9.1Q552.3280000000001 -8.540000000000001 552.3280000000001 -4.368Q552.3280000000001 -2.156 550.844 -0.9520000000000001Q549.3600000000001 0.252 546.6160000000001 0.252Z M578.984 0.252Q576.3240000000001 0.252 574.8120000000001 -0.9520000000000001Q573.3000000000001 -2.156 573.3000000000001 -4.312H576.296Q576.296 -3.332 576.9960000000001 -2.786Q577.696 -2.24 578.984 -2.24H580.216Q581.532 -2.24 582.26 -2.786Q582.988 -3.332 582.988 -4.34Q582.988 -6.104 581.1120000000001 -6.356L577.052 -6.916Q575.344 -7.140000000000001 574.4060000000001 -8.274000000000001Q573.4680000000001 -9.408 573.4680000000001 -11.228Q573.4680000000001 -13.328 574.8960000000001 -14.49Q576.3240000000001 -15.652000000000001 578.928 -15.652000000000001H580.1880000000001Q582.596 -15.652000000000001 584.094 -14.504000000000001Q585.5920000000001 -13.356 585.676 -11.48H582.652Q582.596 -12.236 581.9380000000001 -12.726Q581.2800000000001 -13.216000000000001 580.1880000000001 -13.216000000000001H578.928Q577.724 -13.216000000000001 577.066 -12.684000000000001Q576.408 -12.152000000000001 576.408 -11.256Q576.408 -9.828 578.004 -9.604000000000001L581.812 -9.1Q585.928 -8.540000000000001 585.928 -4.368Q585.928 -2.156 584.444 -0.9520000000000001Q582.96 0.252 580.216 0.252Z M592.788 5.04 595.028 -0.896 589.26 -15.4H592.48L595.756 -6.72Q596.008 -6.104 596.232 -5.3759999999999994Q596.456 -4.648 596.54 -4.088Q596.652 -4.648 596.8620000000001 -5.3759999999999994Q597.072 -6.104 597.296 -6.72L600.348 -15.4H603.54L595.952 5.04Z M607.1519999999999 0.0V-15.4H610.1479999999999V-12.46Q610.372 -13.972 611.4499999999999 -14.826Q612.5279999999999 -15.68 614.264 -15.68Q616.56 -15.68 617.932 -14.21Q619.304 -12.74 619.304 -10.248V0.0H616.28V-9.8Q616.28 -11.396 615.468 -12.25Q614.656 -13.104000000000001 613.256 -13.104000000000001Q611.828 -13.104000000000001 611.002 -12.208Q610.1759999999999 -11.312 610.1759999999999 -9.716000000000001V0.0Z M630.2239999999999 0.28Q627.3399999999999 0.28 625.6039999999999 -1.3159999999999998Q623.8679999999999 -2.912 623.8679999999999 -5.684V-9.716000000000001Q623.8679999999999 -12.488 625.6039999999999 -14.084Q627.3399999999999 -15.68 630.2239999999999 -15.68Q633.0239999999999 -15.68 634.704 -14.224Q636.3839999999999 -12.768 636.4959999999999 -10.248H633.4999999999999Q633.4159999999999 -11.564 632.5339999999999 -12.292Q631.6519999999999 -13.02 630.2239999999999 -13.02Q628.6839999999999 -13.02 627.7879999999999 -12.166Q626.8919999999999 -11.312 626.8919999999999 -9.744V-5.684Q626.8919999999999 -4.088 627.7879999999999 -3.234Q628.6839999999999 -2.38 630.2239999999999 -2.38Q631.68 -2.38 632.548 -3.108Q633.4159999999999 -3.8360000000000003 633.4999999999999 -5.18H636.4959999999999Q636.3839999999999 -2.66 634.704 -1.19Q633.0239999999999 0.28 630.2239999999999 0.28Z" fill="#8A94A0"/></g></g><rect class="rule" x="30.0" y="146" width="638" height="3" rx="1.5" fill="#249361"/></svg>