<svg xmlns="http://www.w3.org/2000/svg" viewBox="0 0 1200 630" width="1200" height="630"><rect width="1200" height="630" fill="#11181C"/><g opacity="0.06" fill="none" stroke="#F8F9FA" stroke-width="12.6" stroke-linecap="round" stroke-linejoin="round"><path d="M106 189 L60 315 L106 441"/><path d="M1094 189 L1140 315 L1094 441"/></g><g transform="translate(362.4,276.4)"><path d="M7.3919999999999995 15.84V-48.4H16.808V-39.248Q17.776 -44.0 21.252 -46.64Q24.727999999999998 -49.279999999999994 30.008 -49.279999999999994Q37.224 -49.279999999999994 41.536 -44.30799999999999Q45.848 -39.336 45.848 -31.063999999999997V-17.424Q45.848 -9.064 41.536 -4.0920000000000005Q37.224 0.8799999999999999 30.008 0.8799999999999999Q24.727999999999998 0.8799999999999999 21.208 -1.892Q17.688 -4.664 16.72 -9.504H16.631999999999998L16.896 2.024V15.84ZM26.663999999999998 -7.3919999999999995Q31.24 -7.3919999999999995 33.792 -9.812Q36.344 -12.232 36.344 -17.599999999999998V-30.887999999999998Q36.344 -36.168 33.792 -38.587999999999994Q31.24 -41.007999999999996 26.663999999999998 -41.007999999999996Q22.087999999999997 -41.007999999999996 19.491999999999997 -38.236Q16.896 -35.464 16.896 -30.447999999999997V-18.04Q16.896 -12.936 19.491999999999997 -10.164Q22.087999999999997 -7.3919999999999995 26.663999999999998 -7.3919999999999995Z M66.52799999999999 15.84V7.656H80.16799999999999Q84.128 7.656 86.416 5.4559999999999995Q88.704 3.256 88.704 -0.528V-4.136L88.88 -12.232Q87.73599999999999 -7.92 84.34799999999998 -5.544Q80.96 -3.1679999999999997 75.94399999999999 -3.1679999999999997Q68.464 -3.1679999999999997 64.152 -8.008Q59.839999999999996 -12.847999999999999 59.839999999999996 -21.296V-31.063999999999997Q59.839999999999996 -39.424 64.152 -44.352Q68.464 -49.279999999999994 75.94399999999999 -49.279999999999994Q80.96 -49.279999999999994 84.304 -46.903999999999996Q87.648 -44.528 88.792 -40.216V-48.4H98.12V-0.352Q98.12 7.127999999999999 93.324 11.484Q88.52799999999999 15.84 80.256 15.84ZM79.024 -11.176Q83.512 -11.176 86.108 -13.948Q88.704 -16.72 88.704 -21.735999999999997V-30.535999999999998Q88.704 -35.464 86.108 -38.236Q83.512 -41.007999999999996 79.024 -41.007999999999996Q74.36 -41.007999999999996 71.852 -38.367999999999995Q69.344 -35.727999999999994 69.344 -31.151999999999997V-21.119999999999997Q69.344 -16.456 71.852 -13.815999999999999Q74.36 -11.176 79.024 -11.176Z" fill="#008BB9"/><path d="M109.384 0.0 126.368 -24.991999999999997 110.44 -48.4H121.35199999999999L129.888 -35.024Q130.504 -33.967999999999996 131.12 -32.78Q131.736 -31.592 132.088 -30.799999999999997Q132.352 -31.592 132.92399999999998 -32.78Q133.49599999999998 -33.967999999999996 134.2 -35.024L142.648 -48.4H153.648L137.72 -24.904L154.61599999999999 0.0H143.704L134.28799999999998 -14.52Q133.672 -15.575999999999999 133.05599999999998 -16.895999999999997Q132.44 -18.215999999999998 132.088 -19.008Q131.648 -18.215999999999998 131.03199999999998 -16.895999999999997Q130.416 -15.575999999999999 129.712 -14.52L120.29599999999999 0.0Z" fill="#3ECF8E"/><path d="M182.86399999999998 0.7919999999999999Q174.50399999999996 0.7919999999999999 169.75199999999995 -2.992Q164.99999999999997 -6.776 164.99999999999997 -13.552H174.41599999999997Q174.41599999999997 -10.472 176.61599999999999 -8.756Q178.81599999999997 -7.039999999999999 182.86399999999998 -7.039999999999999H186.736Q190.87199999999999 -7.039999999999999 193.15999999999997 -8.756Q195.44799999999998 -10.472 195.44799999999998 -13.639999999999999Q195.44799999999998 -19.183999999999997 189.55199999999996 -19.976L176.79199999999997 -21.735999999999997Q171.42399999999998 -22.439999999999998 168.47599999999997 -26.003999999999998Q165.52799999999996 -29.567999999999998 165.52799999999996 -35.288Q165.52799999999996 -41.888 170.01599999999996 -45.54Q174.50399999999996 -49.192 182.688 -49.192H186.64799999999997Q194.21599999999998 -49.192 198.92399999999998 -45.584Q203.63199999999998 -41.976 203.89599999999996 -36.08H194.39199999999997Q194.21599999999998 -38.455999999999996 192.14799999999997 -39.995999999999995Q190.07999999999998 -41.535999999999994 186.64799999999997 -41.535999999999994H182.688Q178.90399999999997 -41.535999999999994 176.83599999999996 -39.864Q174.76799999999997 -38.192 174.76799999999997 -35.376Q174.76799999999997 -30.887999999999998 179.784 -30.183999999999997L191.75199999999998 -28.599999999999998Q204.688 -26.84 204.688 -13.728Q204.688 -6.776 200.024 -2.992Q195.35999999999999 0.7919999999999999 186.736 0.7919999999999999Z M218.32799999999997 0.0V-8.623999999999999H235.136V-39.775999999999996H220.088V-48.4H244.64V-8.623999999999999H260.216V0.0ZM239.09599999999998 -56.76Q236.016 -56.76 234.168 -58.388Q232.32 -60.016 232.32 -62.744Q232.32 -65.56 234.168 -67.188Q236.016 -68.816 239.09599999999998 -68.816Q242.176 -68.816 244.024 -67.188Q245.87199999999999 -65.56 245.87199999999999 -62.744Q245.87199999999999 -60.016 244.024 -58.388Q242.176 -56.76 239.09599999999998 -56.76Z M271.392 0.0V-48.4H280.808V-39.16Q281.512 -43.912 284.9 -46.596Q288.288 -49.279999999999994 293.744 -49.279999999999994Q300.96 -49.279999999999994 305.272 -44.66Q309.584 -40.04 309.584 -32.208V0.0H300.08V-30.799999999999997Q300.08 -35.815999999999995 297.528 -38.5Q294.976 -41.184 290.576 -41.184Q286.088 -41.184 283.492 -38.367999999999995Q280.896 -35.552 280.896 -30.535999999999998V0.0Z M324.632 0.0V-64.24H334.136V-28.951999999999998H342.672L355.168 -48.4H365.81600000000003L350.944 -25.168L366.52 0.0H355.608L342.76 -20.767999999999997H334.136V0.0Z M376.728 0.0V-8.623999999999999H393.536V-39.775999999999996H378.488V-48.4H403.04V-8.623999999999999H418.61600000000004V0.0ZM397.49600000000004 -56.76Q394.416 -56.76 392.568 -58.388Q390.72 -60.016 390.72 -62.744Q390.72 -65.56 392.568 -67.188Q394.416 -68.816 397.49600000000004 -68.816Q400.576 -68.816 402.424 -67.188Q404.272 -65.56 404.272 -62.744Q404.272 -60.016 402.424 -58.388Q400.576 -56.76 397.49600000000004 -56.76Z M453.64000000000004 0.0Q447.216 0.0 443.432 -3.6959999999999997Q439.648 -7.3919999999999995 439.648 -13.728V-39.775999999999996H426.00800000000004V-48.4H439.648V-62.04H449.15200000000004V-48.4H468.68800000000005V-39.775999999999996H449.15200000000004V-13.815999999999999Q449.15200000000004 -11.527999999999999 450.47200000000004 -10.075999999999999Q451.79200000000003 -8.623999999999999 454.08000000000004 -8.623999999999999H468.24800000000005V0.0Z" fill="#F8F9FA"/></g><g transform="translate(222.0,347)"><path d="M3.78 0.0V-21.9H7.02V-2.94H16.59V0.0Z M27.0 0.27Q23.939999999999998 0.27 22.125 -1.5Q20.31 -3.27 20.31 -6.33V-10.17Q20.31 -13.26 22.11 -15.015Q23.91 -16.77 27.0 -16.77Q30.09 -16.77 31.89 -15.015Q33.69 -13.26 33.69 -10.17V-6.33Q33.69 -3.27 31.875 -1.5Q30.06 0.27 27.0 0.27ZM27.0 -2.58Q28.619999999999997 -2.58 29.534999999999997 -3.495Q30.45 -4.41 30.45 -6.12V-10.379999999999999Q30.45 -12.09 29.534999999999997 -13.004999999999999Q28.619999999999997 -13.92 27.0 -13.92Q25.38 -13.92 24.465 -13.004999999999999Q23.55 -12.09 23.55 -10.379999999999999V-6.12Q23.55 -4.41 24.465 -3.495Q25.38 -2.58 27.0 -2.58Z M45.24 0.3Q42.15 0.3 40.29 -1.4100000000000001Q38.43 -3.12 38.43 -6.09V-10.41Q38.43 -13.379999999999999 40.29 -15.09Q42.15 -16.8 45.24 -16.8Q48.24 -16.8 50.040000000000006 -15.24Q51.84 -13.68 51.96 -10.98H48.75Q48.66 -12.389999999999999 47.714999999999996 -13.169999999999998Q46.769999999999996 -13.95 45.24 -13.95Q43.59 -13.95 42.63 -13.035Q41.67 -12.12 41.67 -10.44V-6.09Q41.67 -4.38 42.63 -3.465Q43.59 -2.55 45.24 -2.55Q46.8 -2.55 47.73 -3.3299999999999996Q48.66 -4.109999999999999 48.75 -5.55H51.96Q51.84 -2.85 50.040000000000006 -1.2750000000000001Q48.24 0.3 45.24 0.3Z M61.35 0.3Q58.83 0.3 57.345 -1.125Q55.86 -2.55 55.86 -4.859999999999999Q55.86 -7.199999999999999 57.45 -8.625Q59.04 -10.049999999999999 61.68 -10.049999999999999H66.24V-11.25Q66.24 -14.1 63.03 -14.1Q61.59 -14.1 60.72 -13.559999999999999Q59.85 -13.02 59.79 -12.059999999999999H56.61Q56.76 -14.129999999999999 58.47 -15.465Q60.18 -16.8 63.06 -16.8Q66.12 -16.8 67.80000000000001 -15.344999999999999Q69.48 -13.889999999999999 69.48 -11.28V0.0H66.3V-3.09H66.27Q66.06 -1.5 64.77000000000001 -0.6Q63.480000000000004 0.3 61.35 0.3ZM62.28 -2.37Q64.11 -2.37 65.175 -3.255Q66.24 -4.14 66.24 -5.64V-7.77H61.92Q60.63 -7.77 59.865 -7.02Q59.1 -6.27 59.1 -5.1Q59.1 -3.84 59.94 -3.105Q60.78 -2.37 62.28 -2.37Z M83.55 0.0Q81.21 0.0 79.815 -1.365Q78.42 -2.73 78.42 -5.01V-18.96H72.87V-21.9H81.66V-5.069999999999999Q81.66 -4.08 82.19999999999999 -3.51Q82.74 -2.94 83.67 -2.94H88.65V0.0Z M94.2 -8.43V-11.37H103.8V-8.43Z M114.24 0.0V-11.309999999999999H109.56V-14.25H114.24V-17.43Q114.24 -19.5 115.56 -20.7Q116.88 -21.9 119.16 -21.9H123.99V-19.02H119.22Q117.48 -19.02 117.48 -17.4V-14.25H123.99V-11.309999999999999H117.48V0.0Z M128.43 0.0V-2.94H134.16V-13.559999999999999H129.03V-16.5H137.4V-2.94H142.71V0.0ZM135.51 -19.349999999999998Q134.45999999999998 -19.349999999999998 133.82999999999998 -19.905Q133.2 -20.46 133.2 -21.39Q133.2 -22.349999999999998 133.82999999999998 -22.905Q134.45999999999998 -23.46 135.51 -23.46Q136.56 -23.46 137.19 -22.905Q137.82 -22.349999999999998 137.82 -21.39Q137.82 -20.46 137.19 -19.905Q136.56 -19.349999999999998 135.51 -19.349999999999998Z M147.12 0.0V-16.5H150.33V-13.26Q150.57 -14.91 151.74 -15.855Q152.91 -16.8 154.83 -16.8Q157.38 -16.8 158.79 -15.21Q160.2 -13.62 160.2 -10.74V-9.27H156.96V-10.65Q156.96 -13.979999999999999 153.69 -13.979999999999999Q152.07 -13.979999999999999 151.215 -13.035Q150.36 -12.09 150.36 -10.29V0.0Z M170.34 0.27Q167.49 0.27 165.87 -1.02Q164.25 -2.31 164.25 -4.62H167.46Q167.46 -3.57 168.21 -2.985Q168.96 -2.4 170.34 -2.4H171.66Q173.07 -2.4 173.85 -2.985Q174.63 -3.57 174.63 -4.6499999999999995Q174.63 -6.54 172.62 -6.81L168.27 -7.41Q166.44 -7.6499999999999995 165.435 -8.865Q164.43 -10.08 164.43 -12.03Q164.43 -14.28 165.96 -15.524999999999999Q167.49 -16.77 170.28 -16.77H171.63Q174.21 -16.77 175.815 -15.54Q177.42 -14.309999999999999 177.51 -12.299999999999999H174.27Q174.21 -13.11 173.505 -13.635Q172.8 -14.16 171.63 -14.16H170.28Q168.99 -14.16 168.28500000000003 -13.59Q167.58 -13.02 167.58 -12.059999999999999Q167.58 -10.53 169.29 -10.29L173.37 -9.75Q177.78 -9.15 177.78 -4.68Q177.78 -2.31 176.19 -1.02Q174.6 0.27 171.66 0.27Z M190.65 0.0Q188.46 0.0 187.17000000000002 -1.26Q185.88 -2.52 185.88 -4.68V-13.559999999999999H181.23V-16.5H185.88V-21.15H189.12V-16.5H195.78V-13.559999999999999H189.12V-4.71Q189.12 -3.9299999999999997 189.57 -3.4349999999999996Q190.02 -2.94 190.8 -2.94H195.63V0.0Z M224.34 0.27Q221.49 0.27 219.87 -1.02Q218.25 -2.31 218.25 -4.62H221.46Q221.46 -3.57 222.21 -2.985Q222.96 -2.4 224.34 -2.4H225.66Q227.07 -2.4 227.85 -2.985Q228.63 -3.57 228.63 -4.6499999999999995Q228.63 -6.54 226.62 -6.81L222.27 -7.41Q220.44 -7.6499999999999995 219.435 -8.865Q218.43 -10.08 218.43 -12.03Q218.43 -14.28 219.96 -15.524999999999999Q221.49 -16.77 224.28 -16.77H225.63Q228.21 -16.77 229.815 -15.54Q231.42 -14.309999999999999 231.51 -12.299999999999999H228.27Q228.21 -13.11 227.505 -13.635Q226.8 -14.16 225.63 -14.16H224.28Q222.99 -14.16 222.28500000000003 -13.59Q221.58 -13.02 221.58 -12.059999999999999Q221.58 -10.53 223.29 -10.29L227.37 -9.75Q231.78 -9.15 231.78 -4.68Q231.78 -2.31 230.19 -1.02Q228.6 0.27 225.66 0.27Z M239.13 5.3999999999999995 241.53 -0.96 235.35 -16.5H238.8L242.31 -7.199999999999999Q242.58 -6.54 242.82 -5.76Q243.06 -4.9799999999999995 243.15 -4.38Q243.27 -4.9799999999999995 243.495 -5.76Q243.72 -6.54 243.96 -7.199999999999999L247.23 -16.5H250.65L242.52 5.3999999999999995Z M254.52 0.0V-16.5H257.73V-13.35Q257.97 -14.969999999999999 259.125 -15.885Q260.28 -16.8 262.14 -16.8Q264.6 -16.8 266.07000000000005 -15.225000000000001Q267.54 -13.65 267.54 -10.98V0.0H264.3V-10.5Q264.3 -12.209999999999999 263.43 -13.125Q262.56 -14.04 261.06 -14.04Q259.53 -14.04 258.645 -13.079999999999998Q257.76 -12.12 257.76 -10.41V0.0Z M279.24 0.3Q276.15 0.3 274.28999999999996 -1.4100000000000001Q272.43 -3.12 272.43 -6.09V-10.41Q272.43 -13.379999999999999 274.28999999999996 -15.09Q276.15 -16.8 279.24 -16.8Q282.24 -16.8 284.03999999999996 -15.24Q285.84 -13.68 285.96 -10.98H282.75Q282.66 -12.389999999999999 281.71500000000003 -13.169999999999998Q280.77 -13.95 279.24 -13.95Q277.59 -13.95 276.63 -13.035Q275.67 -12.12 275.67 -10.44V-6.09Q275.67 -4.38 276.63 -3.465Q277.59 -2.55 279.24 -2.55Q280.8 -2.55 281.73 -3.3299999999999996Q282.66 -4.109999999999999 282.75 -5.55H285.96Q285.84 -2.85 284.03999999999996 -1.2750000000000001Q282.24 0.3 279.24 0.3Z M312.24 0.0V-11.309999999999999H307.56V-14.25H312.24V-17.43Q312.24 -19.5 313.56 -20.7Q314.88 -21.9 317.16 -21.9H321.99V-19.02H317.22Q315.48 -19.02 315.48 -17.4V-14.25H321.99V-11.309999999999999H315.48V0.0Z M333.0 0.27Q329.94 0.27 328.125 -1.5Q326.31 -3.27 326.31 -6.33V-10.17Q326.31 -13.26 328.11 -15.015Q329.91 -16.77 333.0 -16.77Q336.09 -16.77 337.89 -15.015Q339.69 -13.26 339.69 -10.17V-6.33Q339.69 -3.27 337.875 -1.5Q336.06 0.27 333.0 0.27ZM333.0 -2.58Q334.62 -2.58 335.53499999999997 -3.495Q336.45 -4.41 336.45 -6.12V-10.379999999999999Q336.45 -12.09 335.53499999999997 -13.004999999999999Q334.62 -13.92 333.0 -13.92Q331.38 -13.92 330.46500000000003 -13.004999999999999Q329.55 -12.09 329.55 -10.379999999999999V-6.12Q329.55 -4.41 330.46500000000003 -3.495Q331.38 -2.58 333.0 -2.58Z M345.12 0.0V-16.5H348.33V-13.26Q348.57 -14.91 349.74 -15.855Q350.91 -16.8 352.83 -16.8Q355.38 -16.8 356.78999999999996 -15.21Q358.2 -13.62 358.2 -10.74V-9.27H354.96V-10.65Q354.96 -13.979999999999999 351.69 -13.979999999999999Q350.07 -13.979999999999999 349.21500000000003 -13.035Q348.36 -12.09 348.36 -10.29V0.0Z M387.09 0.3Q383.85 0.3 381.9 -1.4100000000000001Q379.95 -3.12 379.95 -6.09H383.13Q383.13 -4.4399999999999995 384.21000000000004 -3.4949999999999997Q385.29 -2.55 387.09 -2.55Q388.86 -2.55 389.88 -3.51Q390.9 -4.47 390.9 -6.06Q390.9 -7.26 390.24 -8.16Q389.58 -9.06 388.35 -9.389999999999999L385.2 -10.23Q382.98 -10.83 381.70500000000004 -12.42Q380.43 -14.01 380.43 -16.23Q380.43 -18.029999999999998 381.225 -19.365Q382.02 -20.7 383.49 -21.45Q384.96 -22.2 386.91 -22.2Q388.86 -22.2 390.345 -21.45Q391.83 -20.7 392.655 -19.365Q393.48 -18.029999999999998 393.48 -16.259999999999998H390.3Q390.3 -17.669999999999998 389.355 -18.525Q388.41 -19.38 386.91 -19.38Q385.41 -19.38 384.495 -18.525Q383.58 -17.669999999999998 383.58 -16.29Q383.58 -15.18 384.195 -14.43Q384.81 -13.68 385.92 -13.379999999999999L389.16 -12.51Q391.44 -11.91 392.76 -10.17Q394.08 -8.43 394.08 -6.06Q394.08 -4.109999999999999 393.21 -2.6849999999999996Q392.34 -1.26 390.78 -0.48Q389.22 0.3 387.09 0.3Z M404.97 0.3Q401.97 0.3 400.21500000000003 -1.425Q398.46 -3.15 398.46 -6.12V-16.5H401.7V-6.1499999999999995Q401.7 -4.47 402.57 -3.495Q403.44 -2.52 404.97 -2.52Q406.53 -2.52 407.41499999999996 -3.495Q408.3 -4.47 408.3 -6.1499999999999995V-16.5H411.54V-6.12Q411.54 -3.15 409.755 -1.425Q407.97 0.3 404.97 0.3Z M416.52 5.3999999999999995V-16.5H419.73V-13.379999999999999Q420.06 -15.0 421.245 -15.9Q422.43 -16.8 424.23 -16.8Q426.69 -16.8 428.15999999999997 -15.105Q429.63 -13.41 429.63 -10.59V-5.9399999999999995Q429.63 -3.09 428.15999999999997 -1.395Q426.69 0.3 424.23 0.3Q422.43 0.3 421.23 -0.6449999999999999Q420.03 -1.5899999999999999 419.7 -3.2399999999999998H419.67L419.76 0.69V5.3999999999999995ZM423.09 -2.52Q424.65 -2.52 425.52 -3.3449999999999998Q426.39 -4.17 426.39 -6.0V-10.53Q426.39 -12.33 425.52 -13.155Q424.65 -13.979999999999999 423.09 -13.979999999999999Q421.53 -13.979999999999999 420.645 -13.035Q419.76 -12.09 419.76 -10.379999999999999V-6.1499999999999995Q419.76 -4.41 420.645 -3.465Q421.53 -2.52 423.09 -2.52Z M439.35 0.3Q436.83 0.3 435.345 -1.125Q433.86 -2.55 433.86 -4.859999999999999Q433.86 -7.199999999999999 435.45000000000005 -8.625Q437.04 -10.049999999999999 439.68 -10.049999999999999H444.24V-11.25Q444.24 -14.1 441.03 -14.1Q439.59 -14.1 438.72 -13.559999999999999Q437.85 -13.02 437.79 -12.059999999999999H434.61Q434.76 -14.129999999999999 436.47 -15.465Q438.18 -16.8 441.06 -16.8Q444.12 -16.8 445.8 -15.344999999999999Q447.48 -13.889999999999999 447.48 -11.28V0.0H444.3V-3.09H444.27Q444.06 -1.5 442.77 -0.6Q441.48 0.3 439.35 0.3ZM440.28 -2.37Q442.11 -2.37 443.175 -3.255Q444.24 -4.14 444.24 -5.64V-7.77H439.92Q438.63 -7.77 437.865 -7.02Q437.1 -6.27 437.1 -5.1Q437.1 -3.84 437.94 -3.105Q438.78 -2.37 440.28 -2.37Z M460.23 0.3Q458.43 0.3 457.245 -0.6Q456.06 -1.5 455.73 -3.12V0.0H452.52V-21.9H455.76V-17.189999999999998L455.67 -13.379999999999999Q456.03 -14.969999999999999 457.245 -15.885Q458.46 -16.8 460.23 -16.8Q462.69 -16.8 464.15999999999997 -15.120000000000001Q465.63 -13.44 465.63 -10.559999999999999V-5.91Q465.63 -3.06 464.15999999999997 -1.3800000000000001Q462.69 0.3 460.23 0.3ZM459.09 -2.52Q460.65 -2.52 461.52 -3.3449999999999998Q462.39 -4.17 462.39 -6.0V-10.53Q462.39 -12.33 461.52 -13.155Q460.65 -13.979999999999999 459.09 -13.979999999999999Q457.53 -13.979999999999999 456.645 -13.035Q455.76 -12.09 455.76 -10.379999999999999V-6.1499999999999995Q455.76 -4.41 456.645 -3.465Q457.53 -2.52 459.09 -2.52Z M475.35 0.3Q472.83 0.3 471.345 -1.125Q469.86 -2.55 469.86 -4.859999999999999Q469.86 -7.199999999999999 471.45000000000005 -8.625Q473.04 -10.049999999999999 475.68 -10.049999999999999H480.24V-11.25Q480.24 -14.1 477.03 -14.1Q475.59 -14.1 474.72 -13.559999999999999Q473.85 -13.02 473.79 -12.059999999999999H470.61Q470.76 -14.129999999999999 472.47 -15.465Q474.18 -16.8 477.06 -16.8Q480.12 -16.8 481.8 -15.344999999999999Q483.48 -13.889999999999999 483.48 -11.28V0.0H480.3V-3.09H480.27Q480.06 -1.5 478.77 -0.6Q477.48 0.3 475.35 0.3ZM476.28 -2.37Q478.11 -2.37 479.175 -3.255Q480.24 -4.14 480.24 -5.64V-7.77H475.92Q474.63 -7.77 473.865 -7.02Q473.1 -6.27 473.1 -5.1Q473.1 -3.84 473.94 -3.105Q474.78 -2.37 476.28 -2.37Z M494.34 0.27Q491.49 0.27 489.87 -1.02Q488.25 -2.31 488.25 -4.62H491.46Q491.46 -3.57 492.21 -2.985Q492.96 -2.4 494.34 -2.4H495.66Q497.07 -2.4 497.85 -2.985Q498.63 -3.57 498.63 -4.6499999999999995Q498.63 -6.54 496.62 -6.81L492.27 -7.41Q490.44 -7.6499999999999995 489.435 -8.865Q488.43 -10.08 488.43 -12.03Q488.43 -14.28 489.96000000000004 -15.524999999999999Q491.49 -16.77 494.28 -16.77H495.63Q498.21 -16.77 499.815 -15.54Q501.42 -14.309999999999999 501.51 -12.299999999999999H498.27Q498.21 -13.11 497.505 -13.635Q496.8 -14.16 495.63 -14.16H494.28Q492.99 -14.16 492.28499999999997 -13.59Q491.58 -13.02 491.58 -12.059999999999999Q491.58 -10.53 493.29 -10.29L497.37 -9.75Q501.78 -9.15 501.78 -4.68Q501.78 -2.31 500.19 -1.02Q498.6 0.27 495.66 0.27Z M513.0 0.3Q509.97 0.3 508.14 -1.47Q506.31 -3.2399999999999998 506.31 -6.3V-10.2Q506.31 -13.26 508.14 -15.030000000000001Q509.97 -16.8 513.0 -16.8Q515.04 -16.8 516.54 -16.005Q518.04 -15.209999999999999 518.865 -13.77Q519.69 -12.33 519.69 -10.41V-7.4399999999999995H509.43V-6.09Q509.43 -4.35 510.39 -3.3899999999999997Q511.35 -2.4299999999999997 513.0 -2.4299999999999997Q514.35 -2.4299999999999997 515.25 -2.925Q516.15 -3.42 516.33 -4.29H519.54Q519.21 -2.19 517.425 -0.945Q515.64 0.3 513.0 0.3ZM509.43 -10.41V-9.719999999999999H516.57V-10.44Q516.57 -12.27 515.6400000000001 -13.26Q514.71 -14.25 513.0 -14.25Q511.29 -14.25 510.36 -13.245000000000001Q509.43 -12.24 509.43 -10.41Z M547.35 0.3Q544.83 0.3 543.345 -1.125Q541.86 -2.55 541.86 -4.859999999999999Q541.86 -7.199999999999999 543.45 -8.625Q545.04 -10.049999999999999 547.68 -10.049999999999999H552.24V-11.25Q552.24 -14.1 549.03 -14.1Q547.59 -14.1 546.72 -13.559999999999999Q545.85 -13.02 545.79 -12.059999999999999H542.61Q542.76 -14.129999999999999 544.47 -15.465Q546.18 -16.8 549.06 -16.8Q552.12 -16.8 553.8 -15.344999999999999Q555.48 -13.889999999999999 555.48 -11.28V0.0H552.3V-3.09H552.27Q552.06 -1.5 550.77 -0.6Q549.48 0.3 547.35 0.3ZM548.28 -2.37Q550.11 -2.37 551.175 -3.255Q552.24 -4.14 552.24 -5.64V-7.77H547.92Q546.63 -7.77 545.865 -7.02Q545.1 -6.27 545.1 -5.1Q545.1 -3.84 545.94 -3.105Q546.78 -2.37 548.28 -2.37Z M560.52 0.0V-16.5H563.73V-13.35Q563.97 -14.969999999999999 565.125 -15.885Q566.28 -16.8 568.14 -16.8Q570.6 -16.8 572.0699999999999 -15.225000000000001Q573.54 -13.65 573.54 -10.98V0.0H570.3V-10.5Q570.3 -12.209999999999999 569.43 -13.125Q568.56 -14.04 567.06 -14.04Q565.53 -14.04 564.645 -13.079999999999998Q563.76 -12.12 563.76 -10.41V0.0Z M583.77 0.3Q581.31 0.3 579.8399999999999 -1.3800000000000001Q578.37 -3.06 578.37 -5.91V-10.559999999999999Q578.37 -13.44 579.8399999999999 -15.120000000000001Q581.31 -16.8 583.77 -16.8Q585.54 -16.8 586.755 -15.9Q587.97 -15.0 588.33 -13.379999999999999L588.24 -17.189999999999998V-21.9H591.48V0.0H588.27V-3.12Q587.94 -1.5 586.7550000000001 -0.6Q585.57 0.3 583.77 0.3ZM584.91 -2.52Q586.47 -2.52 587.355 -3.465Q588.24 -4.41 588.24 -6.1499999999999995V-10.379999999999999Q588.24 -12.09 587.355 -13.035Q586.47 -13.979999999999999 584.91 -13.979999999999999Q583.35 -13.979999999999999 582.48 -13.155Q581.61 -12.33 581.61 -10.53V-6.0Q581.61 -4.17 582.48 -3.3449999999999998Q583.35 -2.52 584.91 -2.52Z M614.52 0.0V-21.9H621.69Q623.82 -21.9 625.395 -21.089999999999996Q626.97 -20.279999999999998 627.825 -18.794999999999998Q628.68 -17.31 628.68 -15.299999999999999Q628.68 -13.29 627.81 -11.805Q626.94 -10.32 625.3800000000001 -9.51Q623.82 -8.7 621.69 -8.7H617.76V0.0ZM617.76 -11.58H621.69Q623.37 -11.58 624.375 -12.6Q625.38 -13.62 625.38 -15.299999999999999Q625.38 -16.98 624.375 -18.0Q623.37 -19.02 621.69 -19.02H617.76Z M639.0 0.27Q635.94 0.27 634.125 -1.5Q632.31 -3.27 632.31 -6.33V-10.17Q632.31 -13.26 634.1099999999999 -15.015Q635.91 -16.77 639.0 -16.77Q642.09 -16.77 643.8900000000001 -15.015Q645.69 -13.26 645.69 -10.17V-6.33Q645.69 -3.27 643.875 -1.5Q642.06 0.27 639.0 0.27ZM639.0 -2.58Q640.62 -2.58 641.5350000000001 -3.495Q642.45 -4.41 642.45 -6.12V-10.379999999999999Q642.45 -12.09 641.5350000000001 -13.004999999999999Q640.62 -13.92 639.0 -13.92Q637.38 -13.92 636.4649999999999 -13.004999999999999Q635.55 -12.09 635.55 -10.379999999999999V-6.12Q635.55 -4.41 636.4649999999999 -3.495Q637.38 -2.58 639.0 -2.58Z M656.34 0.27Q653.49 0.27 651.87 -1.02Q650.25 -2.31 650.25 -4.62H653.46Q653.46 -3.57 654.21 -2.985Q654.96 -2.4 656.34 -2.4H657.66Q659.07 -2.4 659.85 -2.985Q660.63 -3.57 660.63 -4.6499999999999995Q660.63 -6.54 658.62 -6.81L654.27 -7.41Q652.44 -7.6499999999999995 651.435 -8.865Q650.43 -10.08 650.43 -12.03Q650.43 -14.28 651.96 -15.524999999999999Q653.49 -16.77 656.28 -16.77H657.63Q660.21 -16.77 661.815 -15.54Q663.42 -14.309999999999999 663.51 -12.299999999999999H660.27Q660.21 -13.11 659.505 -13.635Q658.8 -14.16 657.63 -14.16H656.28Q654.99 -14.16 654.2850000000001 -13.59Q653.58 -13.02 653.58 -12.059999999999999Q653.58 -10.53 655.29 -10.29L659.37 -9.75Q663.78 -9.15 663.78 -4.68Q663.78 -2.31 662.19 -1.02Q660.6 0.27 657.66 0.27Z M676.65 0.0Q674.46 0.0 673.1700000000001 -1.26Q671.88 -2.52 671.88 -4.68V-13.559999999999999H667.23V-16.5H671.88V-21.15H675.12V-16.5H681.78V-13.559999999999999H675.12V-4.71Q675.12 -3.9299999999999997 675.5699999999999 -3.4349999999999996Q676.02 -2.94 676.8 -2.94H681.63V0.0Z M688.68 5.3999999999999995V2.61H693.33Q694.68 2.61 695.46 1.8599999999999999Q696.24 1.1099999999999999 696.24 -0.18V-1.41L696.3 -4.17Q695.91 -2.6999999999999997 694.755 -1.89Q693.6 -1.08 691.89 -1.08Q689.34 -1.08 687.87 -2.73Q686.4 -4.38 686.4 -7.26V-10.59Q686.4 -13.44 687.87 -15.120000000000001Q689.34 -16.8 691.89 -16.8Q693.6 -16.8 694.74 -15.99Q695.88 -15.18 696.27 -13.709999999999999V-16.5H699.45V-0.12Q699.45 2.4299999999999997 697.815 3.9149999999999996Q696.18 5.3999999999999995 693.36 5.3999999999999995ZM692.94 -3.81Q694.47 -3.81 695.355 -4.755Q696.24 -5.7 696.24 -7.41V-10.41Q696.24 -12.09 695.355 -13.035Q694.47 -13.979999999999999 692.94 -13.979999999999999Q691.35 -13.979999999999999 690.495 -13.079999999999998Q689.64 -12.18 689.64 -10.62V-7.199999999999999Q689.64 -5.609999999999999 690.495 -4.71Q691.35 -3.81 692.94 -3.81Z M705.12 0.0V-16.5H708.33V-13.26Q708.57 -14.91 709.74 -15.855Q710.91 -16.8 712.83 -16.8Q715.38 -16.8 716.79 -15.21Q718.2 -13.62 718.2 -10.74V-9.27H714.96V-10.65Q714.96 -13.979999999999999 711.69 -13.979999999999999Q710.07 -13.979999999999999 709.215 -13.035Q708.36 -12.09 708.36 -10.29V0.0Z M729.0 0.3Q725.97 0.3 724.14 -1.47Q722.31 -3.2399999999999998 722.31 -6.3V-10.2Q722.31 -13.26 724.14 -15.030000000000001Q725.97 -16.8 729.0 -16.8Q731.04 -16.8 732.54 -16.005Q734.04 -15.209999999999999 734.865 -13.77Q735.69 -12.33 735.69 -10.41V-7.4399999999999995H725.43V-6.09Q725.43 -4.35 726.39 -3.3899999999999997Q727.35 -2.4299999999999997 729.0 -2.4299999999999997Q730.35 -2.4299999999999997 731.25 -2.925Q732.15 -3.42 732.33 -4.29H735.54Q735.21 -2.19 733.425 -0.945Q731.64 0.3 729.0 0.3ZM725.43 -10.41V-9.719999999999999H732.57V-10.44Q732.57 -12.27 731.6400000000001 -13.26Q730.71 -14.25 729.0 -14.25Q727.29 -14.25 726.3599999999999 -13.245000000000001Q725.43 -12.24 725.43 -10.41Z M746.34 0.27Q743.49 0.27 741.87 -1.02Q740.25 -2.31 740.25 -4.62H743.46Q743.46 -3.57 744.21 -2.985Q744.96 -2.4 746.34 -2.4H747.66Q749.07 -2.4 749.85 -2.985Q750.63 -3.57 750.63 -4.6499999999999995Q750.63 -6.54 748.62 -6.81L744.27 -7.41Q742.44 -7.6499999999999995 741.435 -8.865Q740.43 -10.08 740.43 -12.03Q740.43 -14.28 741.96 -15.524999999999999Q743.49 -16.77 746.28 -16.77H747.63Q750.21 -16.77 751.815 -15.54Q753.42 -14.309999999999999 753.51 -12.299999999999999H750.27Q750.21 -13.11 749.505 -13.635Q748.8 -14.16 747.63 -14.16H746.28Q744.99 -14.16 744.2850000000001 -13.59Q743.58 -13.02 743.58 -12.059999999999999Q743.58 -10.53 745.29 -10.29L749.37 -9.75Q753.78 -9.15 753.78 -4.68Q753.78 -2.31 752.19 -1.02Q750.6 0.27 747.66 0.27Z" fill="#8A94A0"/></g><rect x="222.0" y="365" width="756" height="3" rx="1.5" fill="#3ECF8E"/><g transform="translate(510.9,572)"><path d="M6.6 0.19799999999999998Q4.356 0.19799999999999998 3.025 -1.0999999999999999Q1.694 -2.3979999999999997 1.694 -4.6419999999999995V-7.457999999999999Q1.694 -9.724 3.014 -11.011Q4.334 -12.298 6.6 -12.298Q8.866 -12.298 10.186 -11.011Q11.505999999999998 -9.724 11.505999999999998 -7.457999999999999V-4.6419999999999995Q11.505999999999998 -2.3979999999999997 10.174999999999999 -1.0999999999999999Q8.844 0.19799999999999998 6.6 0.19799999999999998ZM6.6 -1.892Q7.787999999999999 -1.892 8.459 -2.5629999999999997Q9.129999999999999 -3.234 9.129999999999999 -4.4879999999999995V-7.611999999999999Q9.129999999999999 -8.866 8.459 -9.536999999999999Q7.787999999999999 -10.208 6.6 -10.208Q5.412 -10.208 4.741 -9.536999999999999Q4.069999999999999 -8.866 4.069999999999999 -7.611999999999999V-4.4879999999999995Q4.069999999999999 -3.234 4.741 -2.5629999999999997Q5.412 -1.892 6.6 -1.892Z M18.048 3.96V-12.1H20.402V-9.812Q20.644 -11.0 21.512999999999998 -11.66Q22.381999999999998 -12.319999999999999 23.701999999999998 -12.319999999999999Q25.506 -12.319999999999999 26.584 -11.076999999999998Q27.662 -9.834 27.662 -7.765999999999999V-4.356Q27.662 -2.266 26.584 -1.0230000000000001Q25.506 0.21999999999999997 23.701999999999998 0.21999999999999997Q22.381999999999998 0.21999999999999997 21.502 -0.473Q20.622 -1.166 20.38 -2.376H20.357999999999997L20.424 0.506V3.96ZM22.866 -1.8479999999999999Q24.009999999999998 -1.8479999999999999 24.648 -2.453Q25.286 -3.058 25.286 -4.3999999999999995V-7.7219999999999995Q25.286 -9.042 24.648 -9.646999999999998Q24.009999999999998 -10.251999999999999 22.866 -10.251999999999999Q21.721999999999998 -10.251999999999999 21.073 -9.559Q20.424 -8.866 20.424 -7.611999999999999V-4.51Q20.424 -3.234 21.073 -2.541Q21.721999999999998 -1.8479999999999999 22.866 -1.8479999999999999Z M39.0 0.21999999999999997Q36.778 0.21999999999999997 35.436 -1.0779999999999998Q34.094 -2.376 34.094 -4.62V-7.4799999999999995Q34.094 -9.724 35.436 -11.021999999999998Q36.778 -12.319999999999999 39.0 -12.319999999999999Q40.495999999999995 -12.319999999999999 41.596 -11.736999999999998Q42.696 -11.154 43.301 -10.097999999999999Q43.906 -9.042 43.906 -7.6339999999999995V-5.4559999999999995H36.382V-4.465999999999999Q36.382 -3.19 37.086 -2.4859999999999998Q37.79 -1.7819999999999998 39.0 -1.7819999999999998Q39.989999999999995 -1.7819999999999998 40.65 -2.145Q41.31 -2.508 41.442 -3.146H43.796Q43.554 -1.6059999999999999 42.245000000000005 -0.693Q40.936 0.21999999999999997 39.0 0.21999999999999997ZM36.382 -7.6339999999999995V-7.127999999999999H41.617999999999995V-7.656Q41.617999999999995 -8.998 40.93599999999999 -9.724Q40.254 -10.45 39.0 -10.45Q37.745999999999995 -10.45 37.06399999999999 -9.713Q36.382 -8.975999999999999 36.382 -7.6339999999999995Z M50.44799999999999 0.0V-12.1H52.80199999999999V-9.79Q52.977999999999994 -10.978 53.824999999999996 -11.649Q54.672 -12.319999999999999 56.035999999999994 -12.319999999999999Q57.839999999999996 -12.319999999999999 58.91799999999999 -11.165Q59.995999999999995 -10.01 59.995999999999995 -8.052V0.0H57.61999999999999V-7.699999999999999Q57.61999999999999 -8.953999999999999 56.98199999999999 -9.625Q56.343999999999994 -10.296 55.24399999999999 -10.296Q54.12199999999999 -10.296 53.473 -9.591999999999999Q52.824 -8.888 52.824 -7.6339999999999995V0.0Z M87.116 0.19799999999999998Q85.026 0.19799999999999998 83.838 -0.748Q82.65 -1.694 82.65 -3.388H85.004Q85.004 -2.618 85.554 -2.189Q86.104 -1.7599999999999998 87.116 -1.7599999999999998H88.084Q89.118 -1.7599999999999998 89.69 -2.189Q90.262 -2.618 90.262 -3.4099999999999997Q90.262 -4.795999999999999 88.788 -4.994L85.598 -5.433999999999999Q84.256 -5.609999999999999 83.519 -6.5009999999999994Q82.782 -7.3919999999999995 82.782 -8.822Q82.782 -10.472 83.904 -11.385Q85.026 -12.298 87.072 -12.298H88.062Q89.954 -12.298 91.131 -11.396Q92.30799999999999 -10.494 92.374 -9.02H89.998Q89.954 -9.613999999999999 89.437 -9.998999999999999Q88.92 -10.383999999999999 88.062 -10.383999999999999H87.072Q86.126 -10.383999999999999 85.60900000000001 -9.966Q85.092 -9.548 85.092 -8.844Q85.092 -7.7219999999999995 86.346 -7.545999999999999L89.338 -7.1499999999999995Q92.572 -6.71 92.572 -3.432Q92.572 -1.694 91.406 -0.748Q90.24 0.19799999999999998 88.084 0.19799999999999998Z M103.8 0.19799999999999998Q101.556 0.19799999999999998 100.225 -1.0999999999999999Q98.894 -2.3979999999999997 98.894 -4.6419999999999995V-7.457999999999999Q98.894 -9.724 100.214 -11.011Q101.534 -12.298 103.8 -12.298Q106.066 -12.298 107.386 -11.011Q108.706 -9.724 108.706 -7.457999999999999V-4.6419999999999995Q108.706 -2.3979999999999997 107.375 -1.0999999999999999Q106.044 0.19799999999999998 103.8 0.19799999999999998ZM103.8 -1.892Q104.988 -1.892 105.65899999999999 -2.5629999999999997Q106.33 -3.234 106.33 -4.4879999999999995V-7.611999999999999Q106.33 -8.866 105.65899999999999 -9.536999999999999Q104.988 -10.208 103.8 -10.208Q102.61200000000001 -10.208 101.941 -9.536999999999999Q101.27 -8.866 101.27 -7.611999999999999V-4.4879999999999995Q101.27 -3.234 101.941 -2.5629999999999997Q102.61200000000001 -1.892 103.8 -1.892Z M119.97800000000001 0.21999999999999997Q117.778 0.21999999999999997 116.49100000000001 -1.045Q115.20400000000001 -2.31 115.20400000000001 -4.4879999999999995V-12.1H117.58000000000001V-4.51Q117.58000000000001 -3.278 118.21800000000002 -2.5629999999999997Q118.85600000000001 -1.8479999999999999 119.97800000000001 -1.8479999999999999Q121.122 -1.8479999999999999 121.771 -2.5629999999999997Q122.42 -3.278 122.42 -4.51V-12.1H124.796V-4.4879999999999995Q124.796 -2.31 123.487 -1.045Q122.178 0.21999999999999997 119.97800000000001 0.21999999999999997Z M131.888 0.0V-12.1H134.242V-9.724Q134.418 -10.934 135.276 -11.626999999999999Q136.134 -12.319999999999999 137.542 -12.319999999999999Q139.412 -12.319999999999999 140.446 -11.154Q141.48 -9.988 141.48 -7.8759999999999994V-6.798H139.10399999999998V-7.81Q139.10399999999998 -10.251999999999999 136.706 -10.251999999999999Q135.518 -10.251999999999999 134.891 -9.559Q134.26399999999998 -8.866 134.26399999999998 -7.545999999999999V0.0Z M152.576 0.21999999999999997Q150.30999999999997 0.21999999999999997 148.94599999999997 -1.0339999999999998Q147.582 -2.288 147.582 -4.465999999999999V-7.6339999999999995Q147.582 -9.812 148.94599999999997 -11.065999999999999Q150.30999999999997 -12.319999999999999 152.576 -12.319999999999999Q154.77599999999998 -12.319999999999999 156.096 -11.175999999999998Q157.416 -10.032 157.504 -8.052H155.14999999999998Q155.08399999999997 -9.086 154.39099999999996 -9.658Q153.69799999999998 -10.229999999999999 152.576 -10.229999999999999Q151.36599999999999 -10.229999999999999 150.66199999999998 -9.559Q149.95799999999997 -8.888 149.95799999999997 -7.656V-4.465999999999999Q149.95799999999997 -3.2119999999999997 150.66199999999998 -2.541Q151.36599999999999 -1.8699999999999999 152.576 -1.8699999999999999Q153.71999999999997 -1.8699999999999999 154.402 -2.4419999999999997Q155.08399999999997 -3.014 155.14999999999998 -4.069999999999999H157.504Q157.416 -2.09 156.096 -0.9349999999999999Q154.77599999999998 0.21999999999999997 152.576 0.21999999999999997Z M168.59999999999997 0.21999999999999997Q166.378 0.21999999999999997 165.03599999999997 -1.0779999999999998Q163.69399999999996 -2.376 163.69399999999996 -4.62V-7.4799999999999995Q163.69399999999996 -9.724 165.03599999999997 -11.021999999999998Q166.378 -12.319999999999999 168.59999999999997 -12.319999999999999Q170.09599999999998 -12.319999999999999 171.19599999999997 -11.736999999999998Q172.29599999999996 -11.154 172.90099999999995 -10.097999999999999Q173.50599999999997 -9.042 173.50599999999997 -7.6339999999999995V-5.4559999999999995H165.98199999999997V-4.465999999999999Q165.98199999999997 -3.19 166.68599999999998 -2.4859999999999998Q167.38999999999996 -1.7819999999999998 168.59999999999997 -1.7819999999999998Q169.58999999999997 -1.7819999999999998 170.24999999999997 -2.145Q170.90999999999997 -2.508 171.04199999999997 -3.146H173.39599999999996Q173.15399999999997 -1.6059999999999999 171.84499999999997 -0.693Q170.53599999999997 0.21999999999999997 168.59999999999997 0.21999999999999997ZM165.98199999999997 -7.6339999999999995V-7.127999999999999H171.21799999999996V-7.656Q171.21799999999996 -8.998 170.53599999999997 -9.724Q169.85399999999998 -10.45 168.59999999999997 -10.45Q167.34599999999998 -10.45 166.664 -9.713Q165.98199999999997 -8.975999999999999 165.98199999999997 -7.6339999999999995Z" fill="#8A94A0"/></g></svg>