<svg xmlns="http://www.w3.org/2000/svg" viewBox="0 0 1200 630" width="1200" height="630"><rect width="1200" height="630" fill="#11181C"/><g opacity="0.06" fill="none" stroke="#F8F9FA" stroke-width="12.6" stroke-linecap="round" stroke-linejoin="round"><path d="M106 189 L60 315 L106 441"/><path d="M1094 189 L1140 315 L1094 441"/></g><g transform="translate(362.4,276.4)"><path d="M7.3919999999999995 15.84V-48.4H16.808V-39.248Q17.776 -44.0 21.252 -46.64Q24.727999999999998 -49.279999999999994 30.008 -49.279999999999994Q37.224 -49.279999999999994 41.536 -44.30799999999999Q45.848 -39.336 45.848 -31.063999999999997V-17.424Q45.848 -9.064 41.536 -4.0920000000000005Q37.224 0.8799999999999999 30.008 0.8799999999999999Q24.727999999999998 0.8799999999999999 21.208 -1.892Q17.688 -4.664 16.72 -9.504H16.631999999999998L16.896 2.024V15.84ZM26.663999999999998 -7.3919999999999995Q31.24 -7.3919999999999995 33.792 -9.812Q36.344 -12.232 36.344 -17.599999999999998V-30.887999999999998Q36.344 -36.168 33.792 -38.587999999999994Q31.24 -41.007999999999996 26.663999999999998 -41.007999999999996Q22.087999999999997 -41.007999999999996 19.491999999999997 -38.236Q16.896 -35.464 16.896 -30.447999999999997V-18.04Q16.896 -12.936 19.491999999999997 -10.164Q22.087999999999997 -7.3919999999999995 26.663999999999998 -7.3919999999999995Z M66.52799999999999 15.84V7.656H80.16799999999999Q84.128 7.656 86.416 5.4559999999999995Q88.704 3.256 88.704 -0.528V-4.136L88.88 -12.232Q87.73599999999999 -7.92 84.34799999999998 -5.544Q80.96 -3.1679999999999997 75.94399999999999 -3.1679999999999997Q68.464 -3.1679999999999997 64.152 -8.008Q59.839999999999996 -12.847999999999999 59.839999999999996 -21.296V-31.063999999999997Q59.839999999999996 -39.424 64.152 -44.352Q68.464 -49.279999999999994 75.94399999999999 -49.279999999999994Q80.96 -49.279999999999994 84.304 -46.903999999999996Q87.648 -44.528 88.792 -40.216V-48.4H98.12V-0.352Q98.12 7.127999999999999 93.324 11.484Q88.52799999999999 15.84 80.256 15.84ZM79.024 -11.176Q83.512 -11.176 86.108 -13.948Q88.704 -16.72 88.704 -21.735999999999997V-30.535999999999998Q88.704 -35.464 86.108 -38.236Q83.512 -41.007999999999996 79.024 -41.007999999999996Q74.36 -41.007999999999996 71.852 -38.367999999999995Q69.344 -35.727999999999994 69.344 -31.151999999999997V-21.119999999999997Q69.344 -16.456 71.852 -13.815999999999999Q74.36 -11.176 79.024 -11.176Z" fill="#008BB9"/><path d="M109.384 0.0 126.368 -24.991999999999997 110.44 -48.4H121.35199999999999L129.888 -35.024Q130.504 -33.967999999999996 131.12 -32.78Q131.736 -31.592 132.088 -30.799999999999997Q132.352 -31.592 132.92399999999998 -32.78Q133.49599999999998 -33.967999999999996 134.2 -35.024L142.648 -48.4H153.648L137.72 -24.904L154.61599999999999 0.0H143.704L134.28799999999998 -14.52Q133.672 -15.575999999999999 133.05599999999998 -16.895999999999997Q132.44 -18.215999999999998 132.088 -19.008Q131.648 -18.215999999999998 131.03199999999998 -16.895999999999997Q130.416 -15.575999999999999 129.712 -14.52L120.29599999999999 0.0Z" fill="#3ECF8E"/><path d="M182.86399999999998 0.7919999999999999Q174.50399999999996 0.7919999999999999 169.75199999999995 -2.992Q164.99999999999997 -6.776 164.99999999999997 -13.552H174.41599999999997Q174.41599999999997 -10.472 176.61599999999999 -8.756Q178.81599999999997 -7.039999999999999 182.86399999999998 -7.039999999999999H186.736Q190.87199999999999 -7.039999999999999 193.15999999999997 -8.756Q195.44799999999998 -10.472 195.44799999999998 -13.639999999999999Q195.44799999999998 -19.183999999999997 189.55199999999996 -19.976L176.79199999999997 -21.735999999999997Q171.42399999999998 -22.439999999999998 168.47599999999997 -26.003999999999998Q165.52799999999996 -29.567999999999998 165.52799999999996 -35.288Q165.52799999999996 -41.888 170.01599999999996 -45.54Q174.50399999999996 -49.192 182.688 -49.192H186.64799999999997Q194.21599999999998 -49.192 198.92399999999998 -45.584Q203.63199999999998 -41.976 203.89599999999996 -36.08H194.39199999999997Q194.21599999999998 -38.455999999999996 192.14799999999997 -39.995999999999995Q190.07999999999998 -41.535999999999994 186.64799999999997 -41.535999999999994H182.688Q178.90399999999997 -41.535999999999994 176.83599999999996 -39.864Q174.76799999999997 -38.192 174.76799999999997 -35.376Q174.76799999999997 -30.887999999999998 179.784 -30.183999999999997L191.75199999999998 -28.599999999999998Q204.688 -26.84 204.688 -13.728Q204.688 -6.776 200.024 -2.992Q195.35999999999999 0.7919999999999999 186.736 0.7919999999999999Z M218.32799999999997 0.0V-8.623999999999999H235.136V-39.775999999999996H220.088V-48.4H244.64V-8.623999999999999H260.216V0.0ZM239.09599999999998 -56.76Q236.016 -56.76 234.168 -58.388Q232.32 -60.016 232.32 -62.744Q232.32 -65.56 234.168 -67.188Q236.016 -68.816 239.09599999999998 -68.816Q242.176 -68.816 244.024 -67.188Q245.87199999999999 -65.56 245.87199999999999 -62.744Q245.87199999999999 -60.016 244.024 -58.388Q242.176 -56.76 239.09599999999998 -56.76Z M271.392 0.0V-48.4H280.808V-39.16Q281.512 -43.912 284.9 -46.596Q288.288 -49.279999999999994 293.744 -49.279999999999994Q300.96 -49.279999999999994 305.272 -44.66Q309.584 -40.04 309.584 -32.208V0.0H300.08V-30.799999999999997Q300.08 -35.815999999999995 297.528 -38.5Q294.976 -41.184 290.576 -41.184Q286.088 -41.184 283.492 -38.367999999999995Q280.896 -35.552 280.896 -30.535999999999998V0.0Z M324.632 0.0V-64.24H334.136V-28.951999999999998H342.672L355.168 -48.4H365.81600000000003L350.944 -25.168L366.52 0.0H355.608L342.76 -20.767999999999997H334.136V0.0Z M376.728 0.0V-8.623999999999999H393.536V-39.775999999999996H378.488V-48.4H403.04V-8.623999999999999H418.61600000000004V0.0ZM397.49600000000004 -56.76Q394.416 -56.76 392.568 -58.388Q390.72 -60.016 390.72 -62.744Q390.72 -65.56 392.568 -67.188Q394.416 -68.816 397.49600000000004 -68.816Q400.576 -68.816 402.424 -67.188Q404.272 -65.56 404.272 -62.744Q404.272 -60.016 402.424 -58.388Q400.576 -56.76 397.49600000000004 -56.76Z M453.64000000000004 0.0Q447.216 0.0 443.432 -3.6959999999999997Q439.648 -7.3919999999999995 439.648 -13.728V-39.775999999999996H426.00800000000004V-48.4H439.648V-62.04H449.15200000000004V-48.4H468.68800000000005V-39.775999999999996H449.15200000000004V-13.815999999999999Q449.15200000000004 -11.527999999999999 450.47200000000004 -10.075999999999999Q451.79200000000003 -8.623999999999999 454.08000000000004 -8.623999999999999H468.24800000000005V0.0Z" fill="#F8F9FA"/></g><g transform="translate(258.0,347)"><path d="M9.0 0.3Q5.9399999999999995 0.3 4.17 -1.455Q2.4 -3.21 2.4 -6.39V-15.51Q2.4 -18.689999999999998 4.17 -20.445Q5.9399999999999995 -22.2 9.0 -22.2Q12.059999999999999 -22.2 13.829999999999998 -20.445Q15.6 -18.689999999999998 15.6 -15.54V-6.39Q15.6 -3.21 13.829999999999998 -1.455Q12.059999999999999 0.3 9.0 0.3ZM9.0 -2.58Q10.62 -2.58 11.489999999999998 -3.48Q12.36 -4.38 12.36 -6.09V-15.809999999999999Q12.36 -17.52 11.504999999999999 -18.42Q10.65 -19.32 9.0 -19.32Q7.35 -19.32 6.494999999999999 -18.42Q5.64 -17.52 5.64 -15.809999999999999V-6.09Q5.64 -4.38 6.51 -3.48Q7.38 -2.58 9.0 -2.58Z M24.240000000000002 0.0V-11.309999999999999H19.56V-14.25H24.240000000000002V-17.43Q24.240000000000002 -19.5 25.560000000000002 -20.7Q26.88 -21.9 29.16 -21.9H33.99V-19.02H29.22Q27.48 -19.02 27.48 -17.4V-14.25H33.99V-11.309999999999999H27.48V0.0Z M42.24 0.0V-11.309999999999999H37.56V-14.25H42.24V-17.43Q42.24 -19.5 43.56 -20.7Q44.879999999999995 -21.9 47.16 -21.9H51.99V-19.02H47.22Q45.480000000000004 -19.02 45.480000000000004 -17.4V-14.25H51.99V-11.309999999999999H45.480000000000004V0.0Z M65.55 0.0Q63.21 0.0 61.815 -1.365Q60.42 -2.73 60.42 -5.01V-18.96H54.87V-21.9H63.66V-5.069999999999999Q63.66 -4.08 64.19999999999999 -3.51Q64.74 -2.94 65.67 -2.94H70.65V0.0Z M74.43 0.0V-2.94H80.16V-13.559999999999999H75.03V-16.5H83.4V-2.94H88.71000000000001V0.0ZM81.50999999999999 -19.349999999999998Q80.46 -19.349999999999998 79.82999999999998 -19.905Q79.19999999999999 -20.46 79.19999999999999 -21.39Q79.19999999999999 -22.349999999999998 79.82999999999998 -22.905Q80.46 -23.46 81.50999999999999 -23.46Q82.55999999999999 -23.46 83.19 -22.905Q83.82 -22.349999999999998 83.82 -21.39Q83.82 -20.46 83.19 -19.905Q82.55999999999999 -19.349999999999998 81.50999999999999 -19.349999999999998Z M92.52 0.0V-16.5H95.73V-13.35Q95.97 -14.969999999999999 97.125 -15.885Q98.28 -16.8 100.14 -16.8Q102.6 -16.8 104.07 -15.225000000000001Q105.53999999999999 -13.65 105.53999999999999 -10.98V0.0H102.3V-10.5Q102.3 -12.209999999999999 101.43 -13.125Q100.56 -14.04 99.06 -14.04Q97.53 -14.04 96.64500000000001 -13.079999999999998Q95.76 -12.12 95.76 -10.41V0.0Z M117.0 0.3Q113.97 0.3 112.14 -1.47Q110.31 -3.2399999999999998 110.31 -6.3V-10.2Q110.31 -13.26 112.14 -15.030000000000001Q113.97 -16.8 117.0 -16.8Q119.03999999999999 -16.8 120.53999999999999 -16.005Q122.03999999999999 -15.209999999999999 122.865 -13.77Q123.69 -12.33 123.69 -10.41V-7.4399999999999995H113.43V-6.09Q113.43 -4.35 114.39 -3.3899999999999997Q115.35 -2.4299999999999997 117.0 -2.4299999999999997Q118.35 -2.4299999999999997 119.25 -2.925Q120.15 -3.42 120.33 -4.29H123.53999999999999Q123.21 -2.19 121.425 -0.945Q119.64 0.3 117.0 0.3ZM113.43 -10.41V-9.719999999999999H120.57V-10.44Q120.57 -12.27 119.63999999999999 -13.26Q118.71 -14.25 117.0 -14.25Q115.29 -14.25 114.36000000000001 -13.245000000000001Q113.43 -12.24 113.43 -10.41Z M130.2 -8.43V-11.37H139.8V-8.43Z M150.24 0.0V-11.309999999999999H145.56V-14.25H150.24V-17.43Q150.24 -19.5 151.56 -20.7Q152.88 -21.9 155.16 -21.9H159.99V-19.02H155.22Q153.48 -19.02 153.48 -17.4V-14.25H159.99V-11.309999999999999H153.48V0.0Z M164.43 0.0V-2.94H170.16V-13.559999999999999H165.03V-16.5H173.4V-2.94H178.71V0.0ZM171.51 -19.349999999999998Q170.45999999999998 -19.349999999999998 169.82999999999998 -19.905Q169.2 -20.46 169.2 -21.39Q169.2 -22.349999999999998 169.82999999999998 -22.905Q170.45999999999998 -23.46 171.51 -23.46Q172.56 -23.46 173.19 -22.905Q173.82 -22.349999999999998 173.82 -21.39Q173.82 -20.46 173.19 -19.905Q172.56 -19.349999999999998 171.51 -19.349999999999998Z M183.12 0.0V-16.5H186.33V-13.26Q186.57 -14.91 187.74 -15.855Q188.91 -16.8 190.83 -16.8Q193.38 -16.8 194.79 -15.21Q196.2 -13.62 196.2 -10.74V-9.27H192.96V-10.65Q192.96 -13.979999999999999 189.69 -13.979999999999999Q188.07 -13.979999999999999 187.215 -13.035Q186.36 -12.09 186.36 -10.29V0.0Z M206.34 0.27Q203.49 0.27 201.87 -1.02Q200.25 -2.31 200.25 -4.62H203.46Q203.46 -3.57 204.21 -2.985Q204.96 -2.4 206.34 -2.4H207.66Q209.07 -2.4 209.85 -2.985Q210.63 -3.57 210.63 -4.6499999999999995Q210.63 -6.54 208.62 -6.81L204.27 -7.41Q202.44 -7.6499999999999995 201.435 -8.865Q200.43 -10.08 200.43 -12.03Q200.43 -14.28 201.96 -15.524999999999999Q203.49 -16.77 206.28 -16.77H207.63Q210.21 -16.77 211.815 -15.54Q213.42 -14.309999999999999 213.51 -12.299999999999999H210.27Q210.21 -13.11 209.505 -13.635Q208.8 -14.16 207.63 -14.16H206.28Q204.99 -14.16 204.28500000000003 -13.59Q203.58 -13.02 203.58 -12.059999999999999Q203.58 -10.53 205.29 -10.29L209.37 -9.75Q213.78 -9.15 213.78 -4.68Q213.78 -2.31 212.19 -1.02Q210.6 0.27 207.66 0.27Z M226.65 0.0Q224.46 0.0 223.17000000000002 -1.26Q221.88 -2.52 221.88 -4.68V-13.559999999999999H217.23V-16.5H221.88V-21.15H225.12V-16.5H231.78V-13.559999999999999H225.12V-4.71Q225.12 -3.9299999999999997 225.57 -3.4349999999999996Q226.02 -2.94 226.8 -2.94H231.63V0.0Z M240.0 4.8 241.62 -4.38H245.4L243.21 4.8Z M272.55 0.0V-21.9H279.39Q281.43 -21.9 282.975 -21.104999999999997Q284.52 -20.31 285.375 -18.869999999999997Q286.23 -17.43 286.23 -15.479999999999999Q286.23 -13.29 285.12 -11.669999999999998Q284.01 -10.049999999999999 282.15 -9.389999999999999L286.53 0.0H282.99L278.91 -9.0H275.76V0.0ZM275.76 -11.879999999999999H279.39Q281.01 -11.879999999999999 281.97 -12.84Q282.93 -13.799999999999999 282.93 -15.42Q282.93 -17.07 281.95500000000004 -18.045Q280.98 -19.02 279.39 -19.02H275.76Z M291.78 0.0V-21.9H295.02V-2.94H304.59V0.0Z M315.09 0.3Q311.85 0.3 309.9 -1.4100000000000001Q307.95 -3.12 307.95 -6.09H311.13Q311.13 -4.4399999999999995 312.21000000000004 -3.4949999999999997Q313.29 -2.55 315.09 -2.55Q316.86 -2.55 317.88 -3.51Q318.9 -4.47 318.9 -6.06Q318.9 -7.26 318.24 -8.16Q317.58 -9.06 316.35 -9.389999999999999L313.2 -10.23Q310.98 -10.83 309.70500000000004 -12.42Q308.43 -14.01 308.43 -16.23Q308.43 -18.029999999999998 309.225 -19.365Q310.02 -20.7 311.49 -21.45Q312.96 -22.2 314.91 -22.2Q316.86 -22.2 318.345 -21.45Q319.83 -20.7 320.655 -19.365Q321.48 -18.029999999999998 321.48 -16.259999999999998H318.3Q318.3 -17.669999999999998 317.355 -18.525Q316.41 -19.38 314.91 -19.38Q313.41 -19.38 312.495 -18.525Q311.58 -17.669999999999998 311.58 -16.29Q311.58 -15.18 312.195 -14.43Q312.81 -13.68 313.92 -13.379999999999999L317.16 -12.51Q319.44 -11.91 320.76 -10.17Q322.08 -8.43 322.08 -6.06Q322.08 -4.109999999999999 321.21 -2.6849999999999996Q320.34 -1.26 318.78 -0.48Q317.22 0.3 315.09 0.3Z M328.2 -8.43V-11.37H337.8V-8.43Z M349.35 0.3Q346.83 0.3 345.345 -1.125Q343.86 -2.55 343.86 -4.859999999999999Q343.86 -7.199999999999999 345.45000000000005 -8.625Q347.04 -10.049999999999999 349.68 -10.049999999999999H354.24V-11.25Q354.24 -14.1 351.03 -14.1Q349.59 -14.1 348.72 -13.559999999999999Q347.85 -13.02 347.79 -12.059999999999999H344.61Q344.76 -14.129999999999999 346.47 -15.465Q348.18 -16.8 351.06 -16.8Q354.12 -16.8 355.8 -15.344999999999999Q357.48 -13.889999999999999 357.48 -11.28V0.0H354.3V-3.09H354.27Q354.06 -1.5 352.77 -0.6Q351.48 0.3 349.35 0.3ZM350.28 -2.37Q352.11 -2.37 353.175 -3.255Q354.24 -4.14 354.24 -5.64V-7.77H349.92Q348.63 -7.77 347.865 -7.02Q347.1 -6.27 347.1 -5.1Q347.1 -3.84 347.94 -3.105Q348.78 -2.37 350.28 -2.37Z M363.33 0.0 360.69 -16.5H363.36L364.92 -5.64Q365.04 -4.83 365.13 -3.885Q365.22 -2.94 365.25 -2.34Q365.31 -2.94 365.4 -3.885Q365.49 -4.83 365.64 -5.64L367.56 -16.5H370.47L372.36 -5.64Q372.51 -4.83 372.615 -3.885Q372.72 -2.94 372.78 -2.34Q372.84 -2.94 372.91499999999996 -3.885Q372.99 -4.83 373.11 -5.64L374.73 -16.5H377.31L374.58 0.0H371.16L369.42 -10.77Q369.27 -11.61 369.16499999999996 -12.629999999999999Q369.06 -13.65 369.0 -14.25Q368.97 -13.65 368.83500000000004 -12.629999999999999Q368.7 -11.61 368.58 -10.77L366.78 0.0Z M385.35 0.3Q382.83 0.3 381.345 -1.125Q379.86 -2.55 379.86 -4.859999999999999Q379.86 -7.199999999999999 381.45000000000005 -8.625Q383.04 -10.049999999999999 385.68 -10.049999999999999H390.24V-11.25Q390.24 -14.1 387.03 -14.1Q385.59 -14.1 384.72 -13.559999999999999Q383.85 -13.02 383.79 -12.059999999999999H380.61Q380.76 -14.129999999999999 382.47 -15.465Q384.18 -16.8 387.06 -16.8Q390.12 -16.8 391.8 -15.344999999999999Q393.48 -13.889999999999999 393.48 -11.28V0.0H390.3V-3.09H390.27Q390.06 -1.5 388.77 -0.6Q387.48 0.3 385.35 0.3ZM386.28 -2.37Q388.11 -2.37 389.175 -3.255Q390.24 -4.14 390.24 -5.64V-7.77H385.92Q384.63 -7.77 383.865 -7.02Q383.1 -6.27 383.1 -5.1Q383.1 -3.84 383.94 -3.105Q384.78 -2.37 386.28 -2.37Z M399.12 0.0V-16.5H402.33V-13.26Q402.57 -14.91 403.74 -15.855Q404.91 -16.8 406.83 -16.8Q409.38 -16.8 410.78999999999996 -15.21Q412.2 -13.62 412.2 -10.74V-9.27H408.96V-10.65Q408.96 -13.979999999999999 405.69 -13.979999999999999Q404.07 -13.979999999999999 403.21500000000003 -13.035Q402.36 -12.09 402.36 -10.29V0.0Z M423.0 0.3Q419.97 0.3 418.14 -1.47Q416.31 -3.2399999999999998 416.31 -6.3V-10.2Q416.31 -13.26 418.14 -15.030000000000001Q419.97 -16.8 423.0 -16.8Q425.04 -16.8 426.54 -16.005Q428.04 -15.209999999999999 428.865 -13.77Q429.69 -12.33 429.69 -10.41V-7.4399999999999995H419.43V-6.09Q419.43 -4.35 420.39 -3.3899999999999997Q421.35 -2.4299999999999997 423.0 -2.4299999999999997Q424.35 -2.4299999999999997 425.25 -2.925Q426.15 -3.42 426.33 -4.29H429.54Q429.21 -2.19 427.42499999999995 -0.945Q425.64 0.3 423.0 0.3ZM419.43 -10.41V-9.719999999999999H426.57V-10.44Q426.57 -12.27 425.64 -13.26Q424.71 -14.25 423.0 -14.25Q421.29 -14.25 420.36 -13.245000000000001Q419.43 -12.24 419.43 -10.41Z M452.52 0.0V-21.9H459.69Q461.82 -21.9 463.395 -21.089999999999996Q464.97 -20.279999999999998 465.82500000000005 -18.794999999999998Q466.68 -17.31 466.68 -15.299999999999999Q466.68 -13.29 465.81 -11.805Q464.94 -10.32 463.38 -9.51Q461.82 -8.7 459.69 -8.7H455.76V0.0ZM455.76 -11.58H459.69Q461.37 -11.58 462.375 -12.6Q463.38 -13.62 463.38 -15.299999999999999Q463.38 -16.98 462.375 -18.0Q461.37 -19.02 459.69 -19.02H455.76Z M477.0 0.27Q473.94 0.27 472.125 -1.5Q470.31 -3.27 470.31 -6.33V-10.17Q470.31 -13.26 472.11 -15.015Q473.91 -16.77 477.0 -16.77Q480.09 -16.77 481.89 -15.015Q483.69 -13.26 483.69 -10.17V-6.33Q483.69 -3.27 481.875 -1.5Q480.06 0.27 477.0 0.27ZM477.0 -2.58Q478.62 -2.58 479.53499999999997 -3.495Q480.45 -4.41 480.45 -6.12V-10.379999999999999Q480.45 -12.09 479.53499999999997 -13.004999999999999Q478.62 -13.92 477.0 -13.92Q475.38 -13.92 474.46500000000003 -13.004999999999999Q473.55 -12.09 473.55 -10.379999999999999V-6.12Q473.55 -4.41 474.46500000000003 -3.495Q475.38 -2.58 477.0 -2.58Z M494.34 0.27Q491.49 0.27 489.87 -1.02Q488.25 -2.31 488.25 -4.62H491.46Q491.46 -3.57 492.21 -2.985Q492.96 -2.4 494.34 -2.4H495.66Q497.07 -2.4 497.85 -2.985Q498.63 -3.57 498.63 -4.6499999999999995Q498.63 -6.54 496.62 -6.81L492.27 -7.41Q490.44 -7.6499999999999995 489.435 -8.865Q488.43 -10.08 488.43 -12.03Q488.43 -14.28 489.96000000000004 -15.524999999999999Q491.49 -16.77 494.28 -16.77H495.63Q498.21 -16.77 499.815 -15.54Q501.42 -14.309999999999999 501.51 -12.299999999999999H498.27Q498.21 -13.11 497.505 -13.635Q496.8 -14.16 495.63 -14.16H494.28Q492.99 -14.16 492.28499999999997 -13.59Q491.58 -13.02 491.58 -12.059999999999999Q491.58 -10.53 493.29 -10.29L497.37 -9.75Q501.78 -9.15 501.78 -4.68Q501.78 -2.31 500.19 -1.02Q498.6 0.27 495.66 0.27Z M514.65 0.0Q512.46 0.0 511.17 -1.26Q509.88 -2.52 509.88 -4.68V-13.559999999999999H505.23V-16.5H509.88V-21.15H513.12V-16.5H519.78V-13.559999999999999H513.12V-4.71Q513.12 -3.9299999999999997 513.5699999999999 -3.4349999999999996Q514.02 -2.94 514.8 -2.94H519.63V0.0Z M526.68 5.3999999999999995V2.61H531.33Q532.68 2.61 533.46 1.8599999999999999Q534.24 1.1099999999999999 534.24 -0.18V-1.41L534.3 -4.17Q533.91 -2.6999999999999997 532.755 -1.89Q531.6 -1.08 529.89 -1.08Q527.34 -1.08 525.87 -2.73Q524.4 -4.38 524.4 -7.26V-10.59Q524.4 -13.44 525.87 -15.120000000000001Q527.34 -16.8 529.89 -16.8Q531.6 -16.8 532.74 -15.99Q533.88 -15.18 534.27 -13.709999999999999V-16.5H537.45V-0.12Q537.45 2.4299999999999997 535.815 3.9149999999999996Q534.18 5.3999999999999995 531.36 5.3999999999999995ZM530.94 -3.81Q532.47 -3.81 533.355 -4.755Q534.24 -5.7 534.24 -7.41V-10.41Q534.24 -12.09 533.355 -13.035Q532.47 -13.979999999999999 530.94 -13.979999999999999Q529.35 -13.979999999999999 528.495 -13.079999999999998Q527.64 -12.18 527.64 -10.62V-7.199999999999999Q527.64 -5.609999999999999 528.495 -4.71Q529.35 -3.81 530.94 -3.81Z M543.12 0.0V-16.5H546.33V-13.26Q546.57 -14.91 547.74 -15.855Q548.91 -16.8 550.83 -16.8Q553.38 -16.8 554.79 -15.21Q556.2 -13.62 556.2 -10.74V-9.27H552.96V-10.65Q552.96 -13.979999999999999 549.69 -13.979999999999999Q548.07 -13.979999999999999 547.215 -13.035Q546.36 -12.09 546.36 -10.29V0.0Z M567.0 0.3Q563.97 0.3 562.14 -1.47Q560.31 -3.2399999999999998 560.31 -6.3V-10.2Q560.31 -13.26 562.14 -15.030000000000001Q563.97 -16.8 567.0 -16.8Q569.04 -16.8 570.54 -16.005Q572.04 -15.209999999999999 572.865 -13.77Q573.69 -12.33 573.69 -10.41V-7.4399999999999995H563.43V-6.09Q563.43 -4.35 564.39 -3.3899999999999997Q565.35 -2.4299999999999997 567.0 -2.4299999999999997Q568.35 -2.4299999999999997 569.25 -2.925Q570.15 -3.42 570.33 -4.29H573.54Q573.21 -2.19 571.425 -0.945Q569.64 0.3 567.0 0.3ZM563.43 -10.41V-9.719999999999999H570.57V-10.44Q570.57 -12.27 569.6400000000001 -13.26Q568.71 -14.25 567.0 -14.25Q565.29 -14.25 564.3599999999999 -13.245000000000001Q563.43 -12.24 563.43 -10.41Z M584.34 0.27Q581.49 0.27 579.87 -1.02Q578.25 -2.31 578.25 -4.62H581.46Q581.46 -3.57 582.21 -2.985Q582.96 -2.4 584.34 -2.4H585.66Q587.07 -2.4 587.85 -2.985Q588.63 -3.57 588.63 -4.6499999999999995Q588.63 -6.54 586.62 -6.81L582.27 -7.41Q580.44 -7.6499999999999995 579.435 -8.865Q578.43 -10.08 578.43 -12.03Q578.43 -14.28 579.96 -15.524999999999999Q581.49 -16.77 584.28 -16.77H585.63Q588.21 -16.77 589.815 -15.54Q591.42 -14.309999999999999 591.51 -12.299999999999999H588.27Q588.21 -13.11 587.505 -13.635Q586.8 -14.16 585.63 -14.16H584.28Q582.99 -14.16 582.2850000000001 -13.59Q581.58 -13.02 581.58 -12.059999999999999Q581.58 -10.53 583.29 -10.29L587.37 -9.75Q591.78 -9.15 591.78 -4.68Q591.78 -2.31 590.19 -1.02Q588.6 0.27 585.66 0.27Z M620.34 0.27Q617.49 0.27 615.87 -1.02Q614.25 -2.31 614.25 -4.62H617.46Q617.46 -3.57 618.21 -2.985Q618.96 -2.4 620.34 -2.4H621.66Q623.07 -2.4 623.85 -2.985Q624.63 -3.57 624.63 -4.6499999999999995Q624.63 -6.54 622.62 -6.81L618.27 -7.41Q616.44 -7.6499999999999995 615.435 -8.865Q614.43 -10.08 614.43 -12.03Q614.43 -14.28 615.96 -15.524999999999999Q617.49 -16.77 620.28 -16.77H621.63Q624.21 -16.77 625.815 -15.54Q627.42 -14.309999999999999 627.51 -12.299999999999999H624.27Q624.21 -13.11 623.505 -13.635Q622.8 -14.16 621.63 -14.16H620.28Q618.99 -14.16 618.2850000000001 -13.59Q617.58 -13.02 617.58 -12.059999999999999Q617.58 -10.53 619.29 -10.29L623.37 -9.75Q627.78 -9.15 627.78 -4.68Q627.78 -2.31 626.19 -1.02Q624.6 0.27 621.66 0.27Z M635.13 5.3999999999999995 637.53 -0.96 631.35 -16.5H634.8L638.31 -7.199999999999999Q638.58 -6.54 638.8199999999999 -5.76Q639.06 -4.9799999999999995 639.15 -4.38Q639.27 -4.9799999999999995 639.495 -5.76Q639.72 -6.54 639.96 -7.199999999999999L643.23 -16.5H646.65L638.52 5.3999999999999995Z M650.52 0.0V-16.5H653.73V-13.35Q653.97 -14.969999999999999 655.125 -15.885Q656.28 -16.8 658.14 -16.8Q660.6 -16.8 662.0699999999999 -15.225000000000001Q663.54 -13.65 663.54 -10.98V0.0H660.3V-10.5Q660.3 -12.209999999999999 659.43 -13.125Q658.56 -14.04 657.06 -14.04Q655.53 -14.04 654.645 -13.079999999999998Q653.76 -12.12 653.76 -10.41V0.0Z M675.24 0.3Q672.15 0.3 670.29 -1.4100000000000001Q668.43 -3.12 668.43 -6.09V-10.41Q668.43 -13.379999999999999 670.29 -15.09Q672.15 -16.8 675.24 -16.8Q678.24 -16.8 680.04 -15.24Q681.84 -13.68 681.96 -10.98H678.75Q678.66 -12.389999999999999 677.7149999999999 -13.169999999999998Q676.77 -13.95 675.24 -13.95Q673.59 -13.95 672.63 -13.035Q671.67 -12.12 671.67 -10.44V-6.09Q671.67 -4.38 672.63 -3.465Q673.59 -2.55 675.24 -2.55Q676.8 -2.55 677.73 -3.3299999999999996Q678.66 -4.109999999999999 678.75 -5.55H681.96Q681.84 -2.85 680.04 -1.2750000000000001Q678.24 0.3 675.24 0.3Z" fill="#8A94A0"/></g><rect x="258.0" y="365" width="684" height="3" rx="1.5" fill="#3ECF8E"/><g transform="translate(510.9,572)"><path d="M6.6 0.19799999999999998Q4.356 0.19799999999999998 3.025 -1.0999999999999999Q1.694 -2.3979999999999997 1.694 -4.6419999999999995V-7.457999999999999Q1.694 -9.724 3.014 -11.011Q4.334 -12.298 6.6 -12.298Q8.866 -12.298 10.186 -11.011Q11.505999999999998 -9.724 11.505999999999998 -7.457999999999999V-4.6419999999999995Q11.505999999999998 -2.3979999999999997 10.174999999999999 -1.0999999999999999Q8.844 0.19799999999999998 6.6 0.19799999999999998ZM6.6 -1.892Q7.787999999999999 -1.892 8.459 -2.5629999999999997Q9.129999999999999 -3.234 9.129999999999999 -4.4879999999999995V-7.611999999999999Q9.129999999999999 -8.866 8.459 -9.536999999999999Q7.787999999999999 -10.208 6.6 -10.208Q5.412 -10.208 4.741 -9.536999999999999Q4.069999999999999 -8.866 4.069999999999999 -7.611999999999999V-4.4879999999999995Q4.069999999999999 -3.234 4.741 -2.5629999999999997Q5.412 -1.892 6.6 -1.892Z M18.048 3.96V-12.1H20.402V-9.812Q20.644 -11.0 21.512999999999998 -11.66Q22.381999999999998 -12.319999999999999 23.701999999999998 -12.319999999999999Q25.506 -12.319999999999999 26.584 -11.076999999999998Q27.662 -9.834 27.662 -7.765999999999999V-4.356Q27.662 -2.266 26.584 -1.0230000000000001Q25.506 0.21999999999999997 23.701999999999998 0.21999999999999997Q22.381999999999998 0.21999999999999997 21.502 -0.473Q20.622 -1.166 20.38 -2.376H20.357999999999997L20.424 0.506V3.96ZM22.866 -1.8479999999999999Q24.009999999999998 -1.8479999999999999 24.648 -2.453Q25.286 -3.058 25.286 -4.3999999999999995V-7.7219999999999995Q25.286 -9.042 24.648 -9.646999999999998Q24.009999999999998 -10.251999999999999 22.866 -10.251999999999999Q21.721999999999998 -10.251999999999999 21.073 -9.559Q20.424 -8.866 20.424 -7.611999999999999V-4.51Q20.424 -3.234 21.073 -2.541Q21.721999999999998 -1.8479999999999999 22.866 -1.8479999999999999Z M39.0 0.21999999999999997Q36.778 0.21999999999999997 35.436 -1.0779999999999998Q34.094 -2.376 34.094 -4.62V-7.4799999999999995Q34.094 -9.724 35.436 -11.021999999999998Q36.778 -12.319999999999999 39.0 -12.319999999999999Q40.495999999999995 -12.319999999999999 41.596 -11.736999999999998Q42.696 -11.154 43.301 -10.097999999999999Q43.906 -9.042 43.906 -7.6339999999999995V-5.4559999999999995H36.382V-4.465999999999999Q36.382 -3.19 37.086 -2.4859999999999998Q37.79 -1.7819999999999998 39.0 -1.7819999999999998Q39.989999999999995 -1.7819999999999998 40.65 -2.145Q41.31 -2.508 41.442 -3.146H43.796Q43.554 -1.6059999999999999 42.245000000000005 -0.693Q40.936 0.21999999999999997 39.0 0.21999999999999997ZM36.382 -7.6339999999999995V-7.127999999999999H41.617999999999995V-7.656Q41.617999999999995 -8.998 40.93599999999999 -9.724Q40.254 -10.45 39.0 -10.45Q37.745999999999995 -10.45 37.06399999999999 -9.713Q36.382 -8.975999999999999 36.382 -7.6339999999999995Z M50.44799999999999 0.0V-12.1H52.80199999999999V-9.79Q52.977999999999994 -10.978 53.824999999999996 -11.649Q54.672 -12.319999999999999 56.035999999999994 -12.319999999999999Q57.839999999999996 -12.319999999999999 58.91799999999999 -11.165Q59.995999999999995 -10.01 59.995999999999995 -8.052V0.0H57.61999999999999V-7.699999999999999Q57.61999999999999 -8.953999999999999 56.98199999999999 -9.625Q56.343999999999994 -10.296 55.24399999999999 -10.296Q54.12199999999999 -10.296 53.473 -9.591999999999999Q52.824 -8.888 52.824 -7.6339999999999995V0.0Z M87.116 0.19799999999999998Q85.026 0.19799999999999998 83.838 -0.748Q82.65 -1.694 82.65 -3.388H85.004Q85.004 -2.618 85.554 -2.189Q86.104 -1.7599999999999998 87.116 -1.7599999999999998H88.084Q89.118 -1.7599999999999998 89.69 -2.189Q90.262 -2.618 90.262 -3.4099999999999997Q90.262 -4.795999999999999 88.788 -4.994L85.598 -5.433999999999999Q84.256 -5.609999999999999 83.519 -6.5009999999999994Q82.782 -7.3919999999999995 82.782 -8.822Q82.782 -10.472 83.904 -11.385Q85.026 -12.298 87.072 -12.298H88.062Q89.954 -12.298 91.131 -11.396Q92.30799999999999 -10.494 92.374 -9.02H89.998Q89.954 -9.613999999999999 89.437 -9.998999999999999Q88.92 -10.383999999999999 88.062 -10.383999999999999H87.072Q86.126 -10.383999999999999 85.60900000000001 -9.966Q85.092 -9.548 85.092 -8.844Q85.092 -7.7219999999999995 86.346 -7.545999999999999L89.338 -7.1499999999999995Q92.572 -6.71 92.572 -3.432Q92.572 -1.694 91.406 -0.748Q90.24 0.19799999999999998 88.084 0.19799999999999998Z M103.8 0.19799999999999998Q101.556 0.19799999999999998 100.225 -1.0999999999999999Q98.894 -2.3979999999999997 98.894 -4.6419999999999995V-7.457999999999999Q98.894 -9.724 100.214 -11.011Q101.534 -12.298 103.8 -12.298Q106.066 -12.298 107.386 -11.011Q108.706 -9.724 108.706 -7.457999999999999V-4.6419999999999995Q108.706 -2.3979999999999997 107.375 -1.0999999999999999Q106.044 0.19799999999999998 103.8 0.19799999999999998ZM103.8 -1.892Q104.988 -1.892 105.65899999999999 -2.5629999999999997Q106.33 -3.234 106.33 -4.4879999999999995V-7.611999999999999Q106.33 -8.866 105.65899999999999 -9.536999999999999Q104.988 -10.208 103.8 -10.208Q102.61200000000001 -10.208 101.941 -9.536999999999999Q101.27 -8.866 101.27 -7.611999999999999V-4.4879999999999995Q101.27 -3.234 101.941 -2.5629999999999997Q102.61200000000001 -1.892 103.8 -1.892Z M119.97800000000001 0.21999999999999997Q117.778 0.21999999999999997 116.49100000000001 -1.045Q115.20400000000001 -2.31 115.20400000000001 -4.4879999999999995V-12.1H117.58000000000001V-4.51Q117.58000000000001 -3.278 118.21800000000002 -2.5629999999999997Q118.85600000000001 -1.8479999999999999 119.97800000000001 -1.8479999999999999Q121.122 -1.8479999999999999 121.771 -2.5629999999999997Q122.42 -3.278 122.42 -4.51V-12.1H124.796V-4.4879999999999995Q124.796 -2.31 123.487 -1.045Q122.178 0.21999999999999997 119.97800000000001 0.21999999999999997Z M131.888 0.0V-12.1H134.242V-9.724Q134.418 -10.934 135.276 -11.626999999999999Q136.134 -12.319999999999999 137.542 -12.319999999999999Q139.412 -12.319999999999999 140.446 -11.154Q141.48 -9.988 141.48 -7.8759999999999994V-6.798H139.10399999999998V-7.81Q139.10399999999998 -10.251999999999999 136.706 -10.251999999999999Q135.518 -10.251999999999999 134.891 -9.559Q134.26399999999998 -8.866 134.26399999999998 -7.545999999999999V0.0Z M152.576 0.21999999999999997Q150.30999999999997 0.21999999999999997 148.94599999999997 -1.0339999999999998Q147.582 -2.288 147.582 -4.465999999999999V-7.6339999999999995Q147.582 -9.812 148.94599999999997 -11.065999999999999Q150.30999999999997 -12.319999999999999 152.576 -12.319999999999999Q154.77599999999998 -12.319999999999999 156.096 -11.175999999999998Q157.416 -10.032 157.504 -8.052H155.14999999999998Q155.08399999999997 -9.086 154.39099999999996 -9.658Q153.69799999999998 -10.229999999999999 152.576 -10.229999999999999Q151.36599999999999 -10.229999999999999 150.66199999999998 -9.559Q149.95799999999997 -8.888 149.95799999999997 -7.656V-4.465999999999999Q149.95799999999997 -3.2119999999999997 150.66199999999998 -2.541Q151.36599999999999 -1.8699999999999999 152.576 -1.8699999999999999Q153.71999999999997 -1.8699999999999999 154.402 -2.4419999999999997Q155.08399999999997 -3.014 155.14999999999998 -4.069999999999999H157.504Q157.416 -2.09 156.096 -0.9349999999999999Q154.77599999999998 0.21999999999999997 152.576 0.21999999999999997Z M168.59999999999997 0.21999999999999997Q166.378 0.21999999999999997 165.03599999999997 -1.0779999999999998Q163.69399999999996 -2.376 163.69399999999996 -4.62V-7.4799999999999995Q163.69399999999996 -9.724 165.03599999999997 -11.021999999999998Q166.378 -12.319999999999999 168.59999999999997 -12.319999999999999Q170.09599999999998 -12.319999999999999 171.19599999999997 -11.736999999999998Q172.29599999999996 -11.154 172.90099999999995 -10.097999999999999Q173.50599999999997 -9.042 173.50599999999997 -7.6339999999999995V-5.4559999999999995H165.98199999999997V-4.465999999999999Q165.98199999999997 -3.19 166.68599999999998 -2.4859999999999998Q167.38999999999996 -1.7819999999999998 168.59999999999997 -1.7819999999999998Q169.58999999999997 -1.7819999999999998 170.24999999999997 -2.145Q170.90999999999997 -2.508 171.04199999999997 -3.146H173.39599999999996Q173.15399999999997 -1.6059999999999999 171.84499999999997 -0.693Q170.53599999999997 0.21999999999999997 168.59999999999997 0.21999999999999997ZM165.98199999999997 -7.6339999999999995V-7.127999999999999H171.21799999999996V-7.656Q171.21799999999996 -8.998 170.53599999999997 -9.724Q169.85399999999998 -10.45 168.59999999999997 -10.45Q167.34599999999998 -10.45 166.664 -9.713Q165.98199999999997 -8.975999999999999 165.98199999999997 -7.6339999999999995Z" fill="#8A94A0"/></g></svg>