<svg xmlns="http://www.w3.org/2000/svg" viewBox="0 0 1280 360" width="1280" height="360"><rect width="1280" height="360" fill="#11181C"/><g opacity="0.06" fill="none" stroke="#F8F9FA" stroke-width="7.2" stroke-linecap="round" stroke-linejoin="round"><path d="M110 108 L64 180 L110 252"/><path d="M1170 108 L1216 180 L1170 252"/></g><g transform="translate(467.2,169.2)"><path d="M5.376 11.52V-35.2H12.224V-28.544Q12.928 -32.0 15.456000000000001 -33.92Q17.984 -35.84 21.824 -35.84Q27.072 -35.84 30.208 -32.224000000000004Q33.344 -28.608 33.344 -22.592V-12.672Q33.344 -6.5920000000000005 30.208 -2.9760000000000004Q27.072 0.64 21.824 0.64Q17.984 0.64 15.424000000000001 -1.376Q12.864 -3.392 12.16 -6.912H12.096L12.288 1.472V11.52ZM19.392 -5.376Q22.72 -5.376 24.576 -7.136000000000001Q26.432000000000002 -8.896 26.432000000000002 -12.8V-22.464000000000002Q26.432000000000002 -26.304000000000002 24.576 -28.064Q22.72 -29.824 19.392 -29.824Q16.064 -29.824 14.176 -27.808Q12.288 -25.792 12.288 -22.144000000000002V-13.120000000000001Q12.288 -9.408 14.176 -7.3919999999999995Q16.064 -5.376 19.392 -5.376Z M48.384 11.52V5.5680000000000005H58.304Q61.184 5.5680000000000005 62.848 3.968Q64.512 2.368 64.512 -0.384V-3.008L64.64 -8.896Q63.808 -5.76 61.343999999999994 -4.032Q58.879999999999995 -2.3040000000000003 55.232 -2.3040000000000003Q49.792 -2.3040000000000003 46.656 -5.824Q43.519999999999996 -9.344 43.519999999999996 -15.488V-22.592Q43.519999999999996 -28.672 46.656 -32.256Q49.792 -35.84 55.232 -35.84Q58.879999999999995 -35.84 61.312 -34.112Q63.744 -32.384 64.576 -29.248V-35.2H71.36V-0.256Q71.36 5.184 67.872 8.352Q64.384 11.52 58.367999999999995 11.52ZM57.471999999999994 -8.128Q60.736000000000004 -8.128 62.624 -10.144Q64.512 -12.16 64.512 -15.808V-22.208000000000002Q64.512 -25.792 62.624 -27.808Q60.736000000000004 -29.824 57.471999999999994 -29.824Q54.08 -29.824 52.256 -27.904000000000003Q50.432 -25.984 50.432 -22.656V-15.36Q50.432 -11.968 52.256 -10.048Q54.08 -8.128 57.471999999999994 -8.128Z" fill="#008BB9"/><path d="M79.55199999999999 0.0 91.904 -18.176000000000002 80.32 -35.2H88.256L94.464 -25.472Q94.912 -24.704 95.36 -23.84Q95.80799999999999 -22.976 96.064 -22.400000000000002Q96.256 -22.976 96.672 -23.84Q97.088 -24.704 97.6 -25.472L103.744 -35.2H111.744L100.16 -18.112000000000002L112.44800000000001 0.0H104.512L97.664 -10.56Q97.216 -11.328 96.768 -12.288Q96.32 -13.248000000000001 96.064 -13.824Q95.744 -13.248000000000001 95.29599999999999 -12.288Q94.848 -11.328 94.336 -10.56L87.488 0.0Z" fill="#3ECF8E"/><path d="M132.992 0.5760000000000001Q126.91199999999999 0.5760000000000001 123.45599999999999 -2.176Q119.99999999999999 -4.928 119.99999999999999 -9.856H126.84799999999998Q126.84799999999998 -7.6160000000000005 128.44799999999998 -6.368Q130.048 -5.12 132.992 -5.12H135.808Q138.81599999999997 -5.12 140.47999999999996 -6.368Q142.14399999999998 -7.6160000000000005 142.14399999999998 -9.92Q142.14399999999998 -13.952 137.856 -14.528L128.576 -15.808Q124.67199999999998 -16.32 122.52799999999999 -18.912Q120.38399999999999 -21.504 120.38399999999999 -25.664Q120.38399999999999 -30.464000000000002 123.648 -33.120000000000005Q126.91199999999999 -35.776 132.86399999999998 -35.776H135.744Q141.248 -35.776 144.672 -33.152Q148.096 -30.528000000000002 148.28799999999998 -26.240000000000002H141.37599999999998Q141.248 -27.968 139.74399999999997 -29.088Q138.23999999999998 -30.208000000000002 135.744 -30.208000000000002H132.86399999999998Q130.112 -30.208000000000002 128.608 -28.992Q127.10399999999998 -27.776 127.10399999999998 -25.728Q127.10399999999998 -22.464000000000002 130.75199999999998 -21.952L139.456 -20.8Q148.86399999999998 -19.52 148.86399999999998 -9.984Q148.86399999999998 -4.928 145.47199999999998 -2.176Q142.07999999999998 0.5760000000000001 135.808 0.5760000000000001Z M158.784 0.0V-6.272H171.00799999999998V-28.928H160.064V-35.2H177.92V-6.272H189.248V0.0ZM173.888 -41.28Q171.648 -41.28 170.30399999999997 -42.464Q168.95999999999998 -43.648 168.95999999999998 -45.632Q168.95999999999998 -47.68 170.30399999999997 -48.864000000000004Q171.648 -50.048 173.888 -50.048Q176.128 -50.048 177.47199999999998 -48.864000000000004Q178.816 -47.68 178.816 -45.632Q178.816 -43.648 177.47199999999998 -42.464Q176.128 -41.28 173.888 -41.28Z M197.376 0.0V-35.2H204.224V-28.48Q204.736 -31.936 207.2 -33.888000000000005Q209.664 -35.84 213.632 -35.84Q218.88 -35.84 222.016 -32.480000000000004Q225.152 -29.12 225.152 -23.424V0.0H218.24V-22.400000000000002Q218.24 -26.048000000000002 216.38400000000001 -28.0Q214.528 -29.952 211.328 -29.952Q208.064 -29.952 206.176 -27.904000000000003Q204.288 -25.856 204.288 -22.208000000000002V0.0Z M236.096 0.0V-46.72H243.008V-21.056H249.216L258.30400000000003 -35.2H266.048L255.232 -18.304000000000002L266.56 0.0H258.624L249.28 -15.104000000000001H243.008V0.0Z M273.98400000000004 0.0V-6.272H286.208V-28.928H275.264V-35.2H293.12V-6.272H304.44800000000004V0.0ZM289.088 -41.28Q286.848 -41.28 285.504 -42.464Q284.16 -43.648 284.16 -45.632Q284.16 -47.68 285.504 -48.864000000000004Q286.848 -50.048 289.088 -50.048Q291.32800000000003 -50.048 292.672 -48.864000000000004Q294.016 -47.68 294.016 -45.632Q294.016 -43.648 292.672 -42.464Q291.32800000000003 -41.28 289.088 -41.28Z M329.91999999999996 0.0Q325.248 0.0 322.496 -2.688Q319.74399999999997 -5.376 319.74399999999997 -9.984V-28.928H309.824V-35.2H319.74399999999997V-45.12H326.656V-35.2H340.864V-28.928H326.656V-10.048Q326.656 -8.384 327.616 -7.328Q328.57599999999996 -6.272 330.24 -6.272H340.544V0.0Z" fill="#F8F9FA"/></g><g transform="translate(343.6,226)"><path d="M7.8 0.26Q5.148 0.26 3.614 -1.2610000000000001Q2.08 -2.782 2.08 -5.537999999999999V-13.442Q2.08 -16.198 3.614 -17.719Q5.148 -19.24 7.8 -19.24Q10.452 -19.24 11.986 -17.719Q13.52 -16.198 13.52 -13.468V-5.537999999999999Q13.52 -2.782 11.986 -1.2610000000000001Q10.452 0.26 7.8 0.26ZM7.8 -2.2359999999999998Q9.203999999999999 -2.2359999999999998 9.957999999999998 -3.016Q10.712 -3.796 10.712 -5.278V-13.702Q10.712 -15.184 9.971 -15.963999999999999Q9.23 -16.744 7.8 -16.744Q6.37 -16.744 5.629 -15.963999999999999Q4.888 -15.184 4.888 -13.702V-5.278Q4.888 -3.796 5.6419999999999995 -3.016Q6.396 -2.2359999999999998 7.8 -2.2359999999999998Z M21.008 0.0V-9.802H16.951999999999998V-12.35H21.008V-15.106Q21.008 -16.9 22.152 -17.939999999999998Q23.296 -18.98 25.272 -18.98H29.458V-16.483999999999998H25.323999999999998Q23.816 -16.483999999999998 23.816 -15.08V-12.35H29.458V-9.802H23.816V0.0Z M36.608 0.0V-9.802H32.552V-12.35H36.608V-15.106Q36.608 -16.9 37.751999999999995 -17.939999999999998Q38.896 -18.98 40.872 -18.98H45.058V-16.483999999999998H40.924Q39.416 -16.483999999999998 39.416 -15.08V-12.35H45.058V-9.802H39.416V0.0Z M56.809999999999995 0.0Q54.782 0.0 53.57299999999999 -1.183Q52.364 -2.366 52.364 -4.342V-16.432H47.553999999999995V-18.98H55.172V-4.394Q55.172 -3.536 55.64 -3.042Q56.108 -2.548 56.913999999999994 -2.548H61.23V0.0Z M64.506 0.0V-2.548H69.472V-11.751999999999999H65.026V-14.299999999999999H72.28V-2.548H76.882V0.0ZM70.642 -16.77Q69.732 -16.77 69.18599999999999 -17.250999999999998Q68.63999999999999 -17.732 68.63999999999999 -18.538Q68.63999999999999 -19.369999999999997 69.18599999999999 -19.851Q69.732 -20.332 70.642 -20.332Q71.55199999999999 -20.332 72.09799999999998 -19.851Q72.64399999999999 -19.369999999999997 72.64399999999999 -18.538Q72.64399999999999 -17.732 72.09799999999998 -17.250999999999998Q71.55199999999999 -16.77 70.642 -16.77Z M80.184 0.0V-14.299999999999999H82.966V-11.57Q83.174 -12.974 84.17500000000001 -13.767Q85.176 -14.559999999999999 86.788 -14.559999999999999Q88.92 -14.559999999999999 90.194 -13.195Q91.468 -11.83 91.468 -9.516V0.0H88.66V-9.1Q88.66 -10.581999999999999 87.906 -11.375Q87.152 -12.168 85.852 -12.168Q84.526 -12.168 83.759 -11.335999999999999Q82.992 -10.504 82.992 -9.022V0.0Z M101.39999999999999 0.26Q98.774 0.26 97.18799999999999 -1.274Q95.60199999999999 -2.808 95.60199999999999 -5.46V-8.84Q95.60199999999999 -11.491999999999999 97.18799999999999 -13.026Q98.774 -14.559999999999999 101.39999999999999 -14.559999999999999Q103.16799999999999 -14.559999999999999 104.46799999999999 -13.870999999999999Q105.768 -13.181999999999999 106.483 -11.934Q107.198 -10.686 107.198 -9.022V-6.4479999999999995H98.306V-5.278Q98.306 -3.77 99.138 -2.9379999999999997Q99.97 -2.106 101.39999999999999 -2.106Q102.57 -2.106 103.35 -2.535Q104.13 -2.964 104.286 -3.718H107.068Q106.782 -1.898 105.23499999999999 -0.819Q103.68799999999999 0.26 101.39999999999999 0.26ZM98.306 -9.022V-8.424H104.494V-9.048Q104.494 -10.634 103.68799999999999 -11.492Q102.88199999999999 -12.35 101.39999999999999 -12.35Q99.91799999999999 -12.35 99.112 -11.479Q98.306 -10.607999999999999 98.306 -9.022Z M112.83999999999999 -7.306V-9.854H121.15999999999998V-7.306Z M130.20799999999997 0.0V-9.802H126.15199999999999V-12.35H130.20799999999997V-15.106Q130.20799999999997 -16.9 131.35199999999998 -17.939999999999998Q132.49599999999998 -18.98 134.47199999999998 -18.98H138.658V-16.483999999999998H134.52399999999997Q133.016 -16.483999999999998 133.016 -15.08V-12.35H138.658V-9.802H133.016V0.0Z M142.50599999999997 0.0V-2.548H147.47199999999998V-11.751999999999999H143.02599999999998V-14.299999999999999H150.27999999999997V-2.548H154.88199999999998V0.0ZM148.64199999999997 -16.77Q147.73199999999997 -16.77 147.18599999999998 -17.250999999999998Q146.64 -17.732 146.64 -18.538Q146.64 -19.369999999999997 147.18599999999998 -19.851Q147.73199999999997 -20.332 148.64199999999997 -20.332Q149.552 -20.332 150.09799999999998 -19.851Q150.64399999999998 -19.369999999999997 150.64399999999998 -18.538Q150.64399999999998 -17.732 150.09799999999998 -17.250999999999998Q149.552 -16.77 148.64199999999997 -16.77Z M158.70399999999998 0.0V-14.299999999999999H161.48599999999996V-11.491999999999999Q161.69399999999996 -12.921999999999999 162.70799999999997 -13.741Q163.72199999999998 -14.559999999999999 165.38599999999997 -14.559999999999999Q167.59599999999998 -14.559999999999999 168.81799999999998 -13.181999999999999Q170.03999999999996 -11.804 170.03999999999996 -9.308V-8.033999999999999H167.23199999999997V-9.23Q167.23199999999997 -12.116 164.39799999999997 -12.116Q162.99399999999997 -12.116 162.253 -11.297Q161.51199999999997 -10.478 161.51199999999997 -8.918V0.0Z M178.82799999999997 0.23399999999999999Q176.35799999999998 0.23399999999999999 174.95399999999995 -0.8839999999999999Q173.54999999999995 -2.002 173.54999999999995 -4.004H176.33199999999997Q176.33199999999997 -3.094 176.98199999999997 -2.5869999999999997Q177.63199999999998 -2.08 178.82799999999997 -2.08H179.97199999999998Q181.19399999999996 -2.08 181.86999999999995 -2.5869999999999997Q182.54599999999996 -3.094 182.54599999999996 -4.03Q182.54599999999996 -5.668 180.80399999999997 -5.902L177.03399999999996 -6.422Q175.44799999999998 -6.63 174.57699999999997 -7.683Q173.70599999999996 -8.735999999999999 173.70599999999996 -10.426Q173.70599999999996 -12.376 175.03199999999998 -13.454999999999998Q176.35799999999998 -14.533999999999999 178.77599999999995 -14.533999999999999H179.94599999999997Q182.18199999999996 -14.533999999999999 183.57299999999998 -13.468Q184.96399999999997 -12.402 185.04199999999997 -10.66H182.23399999999998Q182.18199999999996 -11.362 181.57099999999997 -11.817Q180.95999999999998 -12.272 179.94599999999997 -12.272H178.77599999999995Q177.65799999999996 -12.272 177.04699999999997 -11.777999999999999Q176.43599999999998 -11.283999999999999 176.43599999999998 -10.452Q176.43599999999998 -9.126 177.91799999999998 -8.918L181.45399999999995 -8.45Q185.27599999999995 -7.93 185.27599999999995 -4.056Q185.27599999999995 -2.002 183.89799999999997 -0.8839999999999999Q182.51999999999995 0.23399999999999999 179.97199999999998 0.23399999999999999Z M196.42999999999995 0.0Q194.53199999999995 0.0 193.41399999999996 -1.0919999999999999Q192.29599999999996 -2.1839999999999997 192.29599999999996 -4.056V-11.751999999999999H188.26599999999996V-14.299999999999999H192.29599999999996V-18.33H195.10399999999996V-14.299999999999999H200.87599999999995V-11.751999999999999H195.10399999999996V-4.082Q195.10399999999996 -3.4059999999999997 195.49399999999997 -2.977Q195.88399999999996 -2.548 196.55999999999995 -2.548H200.74599999999995V0.0Z M207.99999999999994 4.16 209.40399999999997 -3.796H212.67999999999995L210.78199999999995 4.16Z M236.20999999999995 0.0V-18.98H242.13799999999995Q243.90599999999995 -18.98 245.24499999999995 -18.291Q246.58399999999995 -17.602 247.32499999999993 -16.354Q248.06599999999995 -15.106 248.06599999999995 -13.415999999999999Q248.06599999999995 -11.517999999999999 247.10399999999993 -10.113999999999999Q246.14199999999994 -8.709999999999999 244.52999999999994 -8.138L248.32599999999994 0.0H245.25799999999995L241.72199999999995 -7.8H238.99199999999993V0.0ZM238.99199999999993 -10.296H242.13799999999995Q243.54199999999994 -10.296 244.37399999999994 -11.128Q245.20599999999993 -11.959999999999999 245.20599999999993 -13.363999999999999Q245.20599999999993 -14.793999999999999 244.36099999999993 -15.639Q243.51599999999993 -16.483999999999998 242.13799999999995 -16.483999999999998H238.99199999999993Z M252.87599999999995 0.0V-18.98H255.68399999999994V-2.548H263.97799999999995V0.0Z M273.0779999999999 0.26Q270.2699999999999 0.26 268.5799999999999 -1.222Q266.88999999999993 -2.7039999999999997 266.88999999999993 -5.278H269.64599999999996Q269.64599999999996 -3.848 270.58199999999994 -3.029Q271.5179999999999 -2.21 273.0779999999999 -2.21Q274.6119999999999 -2.21 275.4959999999999 -3.042Q276.37999999999994 -3.8739999999999997 276.37999999999994 -5.252Q276.37999999999994 -6.292 275.80799999999994 -7.071999999999999Q275.23599999999993 -7.851999999999999 274.16999999999996 -8.138L271.43999999999994 -8.866Q269.5159999999999 -9.386 268.41099999999994 -10.764Q267.3059999999999 -12.142 267.3059999999999 -14.065999999999999Q267.3059999999999 -15.626 267.9949999999999 -16.782999999999998Q268.6839999999999 -17.939999999999998 269.9579999999999 -18.589999999999996Q271.2319999999999 -19.24 272.9219999999999 -19.24Q274.6119999999999 -19.24 275.8989999999999 -18.589999999999996Q277.1859999999999 -17.939999999999998 277.90099999999995 -16.782999999999998Q278.61599999999993 -15.626 278.61599999999993 -14.091999999999999H275.85999999999996Q275.85999999999996 -15.314 275.04099999999994 -16.055Q274.2219999999999 -16.796 272.9219999999999 -16.796Q271.62199999999996 -16.796 270.82899999999995 -16.055Q270.03599999999994 -15.314 270.03599999999994 -14.117999999999999Q270.03599999999994 -13.155999999999999 270.56899999999996 -12.506Q271.1019999999999 -11.856 272.0639999999999 -11.596L274.87199999999996 -10.841999999999999Q276.84799999999996 -10.322 277.99199999999996 -8.814Q279.1359999999999 -7.306 279.1359999999999 -5.252Q279.1359999999999 -3.562 278.38199999999995 -2.327Q277.62799999999993 -1.0919999999999999 276.27599999999995 -0.4159999999999999Q274.9239999999999 0.26 273.0779999999999 0.26Z M284.43999999999994 -7.306V-9.854H292.75999999999993V-7.306Z M302.77 0.26Q300.58599999999996 0.26 299.299 -0.975Q298.012 -2.21 298.012 -4.212Q298.012 -6.239999999999999 299.39 -7.475Q300.768 -8.709999999999999 303.056 -8.709999999999999H307.008V-9.75Q307.008 -12.219999999999999 304.226 -12.219999999999999Q302.97799999999995 -12.219999999999999 302.22399999999993 -11.751999999999999Q301.46999999999997 -11.283999999999999 301.41799999999995 -10.452H298.662Q298.792 -12.245999999999999 300.274 -13.402999999999999Q301.756 -14.559999999999999 304.25199999999995 -14.559999999999999Q306.904 -14.559999999999999 308.36 -13.299Q309.816 -12.038 309.816 -9.776V0.0H307.06V-2.678H307.034Q306.852 -1.3 305.734 -0.52Q304.616 0.26 302.77 0.26ZM303.57599999999996 -2.054Q305.162 -2.054 306.085 -2.8209999999999997Q307.008 -3.5879999999999996 307.008 -4.888V-6.734H303.26399999999995Q302.14599999999996 -6.734 301.48299999999995 -6.084Q300.82 -5.434 300.82 -4.42Q300.82 -3.328 301.548 -2.691Q302.27599999999995 -2.054 303.57599999999996 -2.054Z M314.886 0.0 312.598 -14.299999999999999H314.912L316.264 -4.888Q316.368 -4.186 316.446 -3.367Q316.524 -2.548 316.55 -2.028Q316.602 -2.548 316.67999999999995 -3.367Q316.758 -4.186 316.888 -4.888L318.552 -14.299999999999999H321.074L322.712 -4.888Q322.842 -4.186 322.933 -3.367Q323.024 -2.548 323.076 -2.028Q323.128 -2.548 323.193 -3.367Q323.258 -4.186 323.362 -4.888L324.766 -14.299999999999999H327.002L324.636 0.0H321.672L320.164 -9.334Q320.034 -10.062 319.943 -10.946Q319.852 -11.83 319.8 -12.35Q319.774 -11.83 319.65700000000004 -10.946Q319.54 -10.062 319.436 -9.334L317.876 0.0Z M333.97 0.26Q331.786 0.26 330.499 -0.975Q329.21200000000005 -2.21 329.21200000000005 -4.212Q329.21200000000005 -6.239999999999999 330.59000000000003 -7.475Q331.968 -8.709999999999999 334.25600000000003 -8.709999999999999H338.208V-9.75Q338.208 -12.219999999999999 335.42600000000004 -12.219999999999999Q334.178 -12.219999999999999 333.424 -11.751999999999999Q332.67 -11.283999999999999 332.618 -10.452H329.862Q329.992 -12.245999999999999 331.47400000000005 -13.402999999999999Q332.956 -14.559999999999999 335.452 -14.559999999999999Q338.10400000000004 -14.559999999999999 339.56000000000006 -13.299Q341.016 -12.038 341.016 -9.776V0.0H338.26000000000005V-2.678H338.23400000000004Q338.052 -1.3 336.934 -0.52Q335.81600000000003 0.26 333.97 0.26ZM334.776 -2.054Q336.362 -2.054 337.285 -2.8209999999999997Q338.208 -3.5879999999999996 338.208 -4.888V-6.734H334.464Q333.346 -6.734 332.683 -6.084Q332.02000000000004 -5.434 332.02000000000004 -4.42Q332.02000000000004 -3.328 332.74800000000005 -2.691Q333.476 -2.054 334.776 -2.054Z M345.90400000000005 0.0V-14.299999999999999H348.68600000000004V-11.491999999999999Q348.89400000000006 -12.921999999999999 349.908 -13.741Q350.922 -14.559999999999999 352.58600000000007 -14.559999999999999Q354.79600000000005 -14.559999999999999 356.01800000000003 -13.181999999999999Q357.24000000000007 -11.804 357.24000000000007 -9.308V-8.033999999999999H354.432V-9.23Q354.432 -12.116 351.59800000000007 -12.116Q350.1940000000001 -12.116 349.4530000000001 -11.297Q348.71200000000005 -10.478 348.71200000000005 -8.918V0.0Z M366.6000000000001 0.26Q363.97400000000005 0.26 362.38800000000003 -1.274Q360.8020000000001 -2.808 360.8020000000001 -5.46V-8.84Q360.8020000000001 -11.491999999999999 362.38800000000003 -13.026Q363.97400000000005 -14.559999999999999 366.6000000000001 -14.559999999999999Q368.36800000000005 -14.559999999999999 369.66800000000006 -13.870999999999999Q370.9680000000001 -13.181999999999999 371.6830000000001 -11.934Q372.3980000000001 -10.686 372.3980000000001 -9.022V-6.4479999999999995H363.5060000000001V-5.278Q363.5060000000001 -3.77 364.3380000000001 -2.9379999999999997Q365.1700000000001 -2.106 366.6000000000001 -2.106Q367.7700000000001 -2.106 368.55000000000007 -2.535Q369.33000000000004 -2.964 369.48600000000005 -3.718H372.2680000000001Q371.9820000000001 -1.898 370.43500000000006 -0.819Q368.8880000000001 0.26 366.6000000000001 0.26ZM363.5060000000001 -9.022V-8.424H369.6940000000001V-9.048Q369.6940000000001 -10.634 368.88800000000003 -11.492Q368.08200000000005 -12.35 366.6000000000001 -12.35Q365.11800000000005 -12.35 364.31200000000007 -11.479Q363.5060000000001 -10.607999999999999 363.5060000000001 -9.022Z M392.18400000000014 0.0V-18.98H398.39800000000014Q400.24400000000014 -18.98 401.60900000000015 -18.278Q402.9740000000001 -17.576 403.71500000000015 -16.289Q404.45600000000013 -15.001999999999999 404.45600000000013 -13.26Q404.45600000000013 -11.517999999999999 403.7020000000001 -10.230999999999998Q402.9480000000001 -8.943999999999999 401.5960000000001 -8.241999999999999Q400.24400000000014 -7.54 398.39800000000014 -7.54H394.99200000000013V0.0ZM394.99200000000013 -10.036H398.39800000000014Q399.8540000000001 -10.036 400.72500000000014 -10.92Q401.5960000000001 -11.804 401.5960000000001 -13.26Q401.5960000000001 -14.716 400.72500000000014 -15.599999999999998Q399.8540000000001 -16.483999999999998 398.39800000000014 -16.483999999999998H394.99200000000013Z M413.40000000000015 0.23399999999999999Q410.74800000000016 0.23399999999999999 409.1750000000002 -1.3Q407.60200000000015 -2.834 407.60200000000015 -5.486V-8.814Q407.60200000000015 -11.491999999999999 409.16200000000015 -13.012999999999998Q410.72200000000015 -14.533999999999999 413.40000000000015 -14.533999999999999Q416.07800000000015 -14.533999999999999 417.63800000000015 -13.012999999999998Q419.19800000000015 -11.491999999999999 419.19800000000015 -8.814V-5.486Q419.19800000000015 -2.834 417.6250000000001 -1.3Q416.05200000000013 0.23399999999999999 413.40000000000015 0.23399999999999999ZM413.40000000000015 -2.2359999999999998Q414.80400000000014 -2.2359999999999998 415.59700000000015 -3.029Q416.39000000000016 -3.8219999999999996 416.39000000000016 -5.303999999999999V-8.996Q416.39000000000016 -10.478 415.59700000000015 -11.271Q414.80400000000014 -12.064 413.40000000000015 -12.064Q411.99600000000015 -12.064 411.20300000000015 -11.271Q410.41000000000014 -10.478 410.41000000000014 -8.996V-5.303999999999999Q410.41000000000014 -3.8219999999999996 411.20300000000015 -3.029Q411.99600000000015 -2.2359999999999998 413.40000000000015 -2.2359999999999998Z M428.42800000000017 0.23399999999999999Q425.95800000000014 0.23399999999999999 424.55400000000014 -0.8839999999999999Q423.15000000000015 -2.002 423.15000000000015 -4.004H425.9320000000002Q425.9320000000002 -3.094 426.58200000000016 -2.5869999999999997Q427.23200000000014 -2.08 428.42800000000017 -2.08H429.5720000000002Q430.79400000000015 -2.08 431.47000000000014 -2.5869999999999997Q432.1460000000002 -3.094 432.1460000000002 -4.03Q432.1460000000002 -5.668 430.40400000000017 -5.902L426.6340000000002 -6.422Q425.0480000000002 -6.63 424.17700000000013 -7.683Q423.30600000000015 -8.735999999999999 423.30600000000015 -10.426Q423.30600000000015 -12.376 424.6320000000002 -13.454999999999998Q425.95800000000014 -14.533999999999999 428.37600000000015 -14.533999999999999H429.54600000000016Q431.78200000000015 -14.533999999999999 433.1730000000001 -13.468Q434.56400000000014 -12.402 434.64200000000017 -10.66H431.8340000000002Q431.78200000000015 -11.362 431.17100000000016 -11.817Q430.5600000000002 -12.272 429.54600000000016 -12.272H428.37600000000015Q427.25800000000015 -12.272 426.64700000000016 -11.777999999999999Q426.0360000000002 -11.283999999999999 426.0360000000002 -10.452Q426.0360000000002 -9.126 427.51800000000014 -8.918L431.05400000000014 -8.45Q434.87600000000015 -7.93 434.87600000000015 -4.056Q434.87600000000015 -2.002 433.49800000000016 -0.8839999999999999Q432.1200000000002 0.23399999999999999 429.5720000000002 0.23399999999999999Z M446.0300000000002 0.0Q444.1320000000002 0.0 443.0140000000002 -1.0919999999999999Q441.8960000000002 -2.1839999999999997 441.8960000000002 -4.056V-11.751999999999999H437.86600000000016V-14.299999999999999H441.8960000000002V-18.33H444.7040000000002V-14.299999999999999H450.47600000000017V-11.751999999999999H444.7040000000002V-4.082Q444.7040000000002 -3.4059999999999997 445.09400000000016 -2.977Q445.4840000000002 -2.548 446.1600000000002 -2.548H450.3460000000002V0.0Z M456.4560000000002 4.68V2.262H460.4860000000002Q461.6560000000002 2.262 462.3320000000002 1.612Q463.0080000000002 0.962 463.0080000000002 -0.156V-1.222L463.06000000000023 -3.614Q462.7220000000002 -2.34 461.72100000000023 -1.638Q460.7200000000002 -0.9359999999999999 459.2380000000002 -0.9359999999999999Q457.0280000000002 -0.9359999999999999 455.7540000000002 -2.3659999999999997Q454.4800000000002 -3.796 454.4800000000002 -6.292V-9.177999999999999Q454.4800000000002 -11.648 455.7540000000002 -13.104Q457.0280000000002 -14.559999999999999 459.2380000000002 -14.559999999999999Q460.7200000000002 -14.559999999999999 461.7080000000002 -13.857999999999999Q462.6960000000002 -13.155999999999999 463.0340000000002 -11.882V-14.299999999999999H465.7900000000002V-0.104Q465.7900000000002 2.106 464.37300000000016 3.393Q462.9560000000002 4.68 460.5120000000002 4.68ZM460.1480000000002 -3.302Q461.4740000000002 -3.302 462.2410000000002 -4.1209999999999996Q463.0080000000002 -4.9399999999999995 463.0080000000002 -6.422V-9.022Q463.0080000000002 -10.478 462.2410000000002 -11.297Q461.4740000000002 -12.116 460.1480000000002 -12.116Q458.7700000000002 -12.116 458.0290000000002 -11.335999999999999Q457.2880000000002 -10.556 457.2880000000002 -9.203999999999999V-6.239999999999999Q457.2880000000002 -4.862 458.0290000000002 -4.082Q458.7700000000002 -3.302 460.1480000000002 -3.302Z M470.70400000000024 0.0V-14.299999999999999H473.4860000000002V-11.491999999999999Q473.69400000000024 -12.921999999999999 474.7080000000002 -13.741Q475.7220000000002 -14.559999999999999 477.38600000000025 -14.559999999999999Q479.59600000000023 -14.559999999999999 480.8180000000002 -13.181999999999999Q482.04000000000025 -11.804 482.04000000000025 -9.308V-8.033999999999999H479.2320000000002V-9.23Q479.2320000000002 -12.116 476.39800000000025 -12.116Q474.99400000000026 -12.116 474.25300000000027 -11.297Q473.5120000000002 -10.478 473.5120000000002 -8.918V0.0Z M491.40000000000026 0.26Q488.7740000000002 0.26 487.1880000000002 -1.274Q485.60200000000026 -2.808 485.60200000000026 -5.46V-8.84Q485.60200000000026 -11.491999999999999 487.1880000000002 -13.026Q488.7740000000002 -14.559999999999999 491.40000000000026 -14.559999999999999Q493.16800000000023 -14.559999999999999 494.46800000000025 -13.870999999999999Q495.76800000000026 -13.181999999999999 496.4830000000003 -11.934Q497.19800000000026 -10.686 497.19800000000026 -9.022V-6.4479999999999995H488.30600000000027V-5.278Q488.30600000000027 -3.77 489.13800000000026 -2.9379999999999997Q489.97000000000025 -2.106 491.40000000000026 -2.106Q492.5700000000003 -2.106 493.35000000000025 -2.535Q494.1300000000002 -2.964 494.28600000000023 -3.718H497.06800000000027Q496.78200000000027 -1.898 495.23500000000024 -0.819Q493.6880000000003 0.26 491.40000000000026 0.26ZM488.30600000000027 -9.022V-8.424H494.49400000000026V-9.048Q494.49400000000026 -10.634 493.6880000000002 -11.492Q492.88200000000023 -12.35 491.40000000000026 -12.35Q489.91800000000023 -12.35 489.11200000000025 -11.479Q488.30600000000027 -10.607999999999999 488.30600000000027 -9.022Z M506.4280000000003 0.23399999999999999Q503.95800000000025 0.23399999999999999 502.55400000000026 -0.8839999999999999Q501.15000000000026 -2.002 501.15000000000026 -4.004H503.9320000000003Q503.9320000000003 -3.094 504.5820000000003 -2.5869999999999997Q505.23200000000026 -2.08 506.4280000000003 -2.08H507.5720000000003Q508.79400000000027 -2.08 509.47000000000025 -2.5869999999999997Q510.1460000000003 -3.094 510.1460000000003 -4.03Q510.1460000000003 -5.668 508.4040000000003 -5.902L504.6340000000003 -6.422Q503.0480000000003 -6.63 502.17700000000025 -7.683Q501.30600000000027 -8.735999999999999 501.30600000000027 -10.426Q501.30600000000027 -12.376 502.6320000000003 -13.454999999999998Q503.95800000000025 -14.533999999999999 506.37600000000026 -14.533999999999999H507.5460000000003Q509.78200000000027 -14.533999999999999 511.1730000000003 -13.468Q512.5640000000003 -12.402 512.6420000000003 -10.66H509.8340000000003Q509.78200000000027 -11.362 509.1710000000003 -11.817Q508.5600000000003 -12.272 507.5460000000003 -12.272H506.37600000000026Q505.25800000000027 -12.272 504.6470000000003 -11.777999999999999Q504.0360000000003 -11.283999999999999 504.0360000000003 -10.452Q504.0360000000003 -9.126 505.51800000000026 -8.918L509.05400000000026 -8.45Q512.8760000000003 -7.93 512.8760000000003 -4.056Q512.8760000000003 -2.002 511.4980000000003 -0.8839999999999999Q510.1200000000003 0.23399999999999999 507.5720000000003 0.23399999999999999Z M537.6280000000003 0.23399999999999999Q535.1580000000004 0.23399999999999999 533.7540000000004 -0.8839999999999999Q532.3500000000004 -2.002 532.3500000000004 -4.004H535.1320000000003Q535.1320000000003 -3.094 535.7820000000004 -2.5869999999999997Q536.4320000000004 -2.08 537.6280000000003 -2.08H538.7720000000003Q539.9940000000004 -2.08 540.6700000000003 -2.5869999999999997Q541.3460000000003 -3.094 541.3460000000003 -4.03Q541.3460000000003 -5.668 539.6040000000003 -5.902L535.8340000000003 -6.422Q534.2480000000003 -6.63 533.3770000000003 -7.683Q532.5060000000003 -8.735999999999999 532.5060000000003 -10.426Q532.5060000000003 -12.376 533.8320000000003 -13.454999999999998Q535.1580000000004 -14.533999999999999 537.5760000000004 -14.533999999999999H538.7460000000003Q540.9820000000003 -14.533999999999999 542.3730000000003 -13.468Q543.7640000000004 -12.402 543.8420000000003 -10.66H541.0340000000003Q540.9820000000003 -11.362 540.3710000000003 -11.817Q539.7600000000003 -12.272 538.7460000000003 -12.272H537.5760000000004Q536.4580000000003 -12.272 535.8470000000003 -11.777999999999999Q535.2360000000003 -11.283999999999999 535.2360000000003 -10.452Q535.2360000000003 -9.126 536.7180000000003 -8.918L540.2540000000004 -8.45Q544.0760000000004 -7.93 544.0760000000004 -4.056Q544.0760000000004 -2.002 542.6980000000003 -0.8839999999999999Q541.3200000000003 0.23399999999999999 538.7720000000003 0.23399999999999999Z M550.4460000000004 4.68 552.5260000000003 -0.832 547.1700000000003 -14.299999999999999H550.1600000000003L553.2020000000003 -6.239999999999999Q553.4360000000004 -5.668 553.6440000000003 -4.992Q553.8520000000003 -4.316 553.9300000000003 -3.796Q554.0340000000003 -4.316 554.2290000000003 -4.992Q554.4240000000003 -5.668 554.6320000000003 -6.239999999999999L557.4660000000003 -14.299999999999999H560.4300000000003L553.3840000000004 4.68Z M563.7840000000003 0.0V-14.299999999999999H566.5660000000004V-11.57Q566.7740000000003 -12.974 567.7750000000003 -13.767Q568.7760000000004 -14.559999999999999 570.3880000000004 -14.559999999999999Q572.5200000000003 -14.559999999999999 573.7940000000003 -13.195Q575.0680000000003 -11.83 575.0680000000003 -9.516V0.0H572.2600000000003V-9.1Q572.2600000000003 -10.581999999999999 571.5060000000003 -11.375Q570.7520000000004 -12.168 569.4520000000003 -12.168Q568.1260000000003 -12.168 567.3590000000004 -11.335999999999999Q566.5920000000003 -10.504 566.5920000000003 -9.022V0.0Z M585.2080000000004 0.26Q582.5300000000004 0.26 580.9180000000003 -1.222Q579.3060000000004 -2.7039999999999997 579.3060000000004 -5.278V-9.022Q579.3060000000004 -11.596 580.9180000000003 -13.078Q582.5300000000004 -14.559999999999999 585.2080000000004 -14.559999999999999Q587.8080000000003 -14.559999999999999 589.3680000000004 -13.207999999999998Q590.9280000000003 -11.856 591.0320000000004 -9.516H588.2500000000003Q588.1720000000004 -10.738 587.3530000000003 -11.414Q586.5340000000003 -12.09 585.2080000000004 -12.09Q583.7780000000004 -12.09 582.9460000000004 -11.297Q582.1140000000004 -10.504 582.1140000000004 -9.048V-5.278Q582.1140000000004 -3.796 582.9460000000004 -3.003Q583.7780000000004 -2.21 585.2080000000004 -2.21Q586.5600000000004 -2.21 587.3660000000004 -2.886Q588.1720000000004 -3.562 588.2500000000003 -4.81H591.0320000000004Q590.9280000000003 -2.4699999999999998 589.3680000000004 -1.105Q587.8080000000003 0.26 585.2080000000004 0.26Z" fill="#8A94A0"/></g><rect x="343.6" y="242" width="593" height="3" rx="1.5" fill="#3ECF8E"/></svg>